<svg width="10" height="34" viewBox="0 0 10 34" fill="none" xmlns="http://www.w3.org/2000/svg">
<path d="M0.711999 34C0.84 34 0.936 33.984 1 33.952L1.336 33.904H1.432C1.944 33.136 2.584 31.888 3.352 30.16L4.168 28.336L6.568 23.344L7.048 22.288C7.336 21.808 7.528 21.424 7.624 21.136C7.72 20.848 8.072 20.304 8.68 19.504C9.256 18.736 9.544 18.112 9.544 17.632C9.544 17.28 9.176 16.192 8.44 14.368L5.944 8.656C5.08 6.768 4.536 5.472 4.312 4.768C4.312 4.672 4.216 4.368 4.024 3.856C3.768 2.768 3.464 1.92 3.112 1.312C2.92 0.927999 2.712 0.719999 2.488 0.688L1.864 1.168C1.992 2.128 2.376 3.392 3.016 4.96C3.624 6.496 4.328 8.064 5.128 9.664C5.896 11.2 6.552 12.704 7.096 14.176C7.608 15.616 7.864 16.752 7.864 17.584C7.864 17.84 6.776 20.208 4.6 24.688C2.392 29.168 1.016 31.856 0.472 32.752L0.0399995 33.088C0.104 33.28 0.2 33.488 0.328 33.712C0.455999 33.904 0.583999 34 0.711999 34Z" fill="#4A4A4A"/>
</svg>
