<svg width="40" height="40" viewBox="0 0 40 40" fill="none" xmlns="http://www.w3.org/2000/svg">
<g clip-path="url(#clip0)">
<path d="M37.4039 1.28296H34.8371C34.5128 1.28296 34.25 1.54572 34.25 1.87C34.25 2.19428 34.5128 2.45704 34.8371 2.45704H37.4039C37.5534 2.45704 37.6751 2.57867 37.6751 2.72817V18.489C37.6751 18.6385 37.5534 18.7602 37.4039 18.7602H13.3839V17.5862H29.2378C29.5621 17.5862 29.8249 17.3234 29.8249 16.9991C29.8249 16.6748 29.5621 16.4121 29.2378 16.4121H13.3839V13.9219C13.3839 12.348 12.1034 11.0675 10.5295 11.0675C8.95564 11.0675 7.67511 12.348 7.67511 13.9219V16.4121H6.31701C6.10607 15.6114 5.47426 14.9796 4.67361 14.7687V10.5976C4.67361 10.2734 4.41085 10.0106 4.08657 10.0106C3.76229 10.0106 3.49953 10.2734 3.49953 10.5976V15.28C3.49953 15.6043 3.76229 15.8671 4.08657 15.8671C4.71079 15.8671 5.21862 16.3749 5.21862 16.9991C5.21862 17.3234 5.48138 17.5862 5.80566 17.5862H7.67519V18.7602H2.59658C2.44708 18.7602 2.32545 18.6385 2.32545 18.489V2.72809C2.32545 2.57859 2.44708 2.45696 2.59658 2.45696H10.7069V3.63104H5.80566C5.48138 3.63104 5.21862 3.8938 5.21862 4.21808C5.21862 4.8423 4.71079 5.35013 4.08657 5.35013C3.76229 5.35013 3.49953 5.61289 3.49953 5.93717V8.09576C3.49953 8.42004 3.76229 8.6828 4.08657 8.6828C4.41085 8.6828 4.67361 8.42004 4.67361 8.09576V6.4486C5.47426 6.23766 6.10607 5.60585 6.31701 4.8052H10.7069V5.03148C10.7069 6.43983 11.8527 7.58566 13.2612 7.58566C13.9145 7.58566 14.511 7.33887 14.9632 6.93389C15.3999 7.71739 16.2367 8.24878 17.1956 8.24878C18.1544 8.24878 18.9912 7.71739 19.4279 6.93389C19.8801 7.33879 20.4766 7.58566 21.1299 7.58566C22.1304 7.58566 22.9979 7.00715 23.4168 6.16737C23.8619 6.54409 24.4368 6.77194 25.0643 6.77194C26.2704 6.77194 27.2834 5.9313 27.5495 4.80528H33.6837C33.8946 5.60592 34.5264 6.23774 35.3271 6.44868V14.7688C34.5264 14.9797 33.8946 15.6115 33.6837 16.4122H31.7396C31.4153 16.4122 31.1526 16.6749 31.1526 16.9992C31.1526 17.3235 31.4153 17.5862 31.7396 17.5862H34.195C34.5193 17.5862 34.7821 17.3235 34.7821 16.9992C34.7821 16.375 35.2899 15.8672 35.9141 15.8672C36.2384 15.8672 36.5011 15.6044 36.5011 15.2801V5.93725C36.5011 5.61297 36.2384 5.35021 35.9141 5.35021C35.2899 5.35021 34.7821 4.84238 34.7821 4.21816C34.7821 3.89388 34.5193 3.63112 34.195 3.63112H27.6185V2.45704H32.3354C32.6597 2.45704 32.9225 2.19428 32.9225 1.87C32.9225 1.54572 32.6597 1.28296 32.3354 1.28296H27.5093C27.2457 0.536477 26.5336 0 25.698 0H24.4303C23.9127 0 23.4427 0.206169 23.0971 0.540234C22.7514 0.206169 22.2813 0 21.7638 0H20.496C19.9785 0 19.5084 0.206169 19.1627 0.540234C18.817 0.206169 18.347 0 17.8293 0H16.5617C16.0441 0 15.574 0.206169 15.2284 0.540234C14.8826 0.206169 14.4126 0 13.8951 0H12.6273C11.7918 0 11.0796 0.536477 10.8162 1.28296H2.59658C1.79969 1.28296 1.15137 1.93129 1.15137 2.72817V18.489C1.15137 19.2859 1.79969 19.9343 2.59658 19.9343H7.67519V24.2885C7.67519 25.5408 8.16282 26.7182 9.04831 27.6037L11.562 30.1173V39.413C11.562 39.7372 11.8248 40 12.1491 40C12.4733 40 12.7361 39.7372 12.7361 39.413V29.8742C12.7361 29.7185 12.6743 29.5692 12.5642 29.459L9.87855 26.7734C9.2148 26.1097 8.84927 25.2271 8.84927 24.2884V13.9218C8.84927 12.9953 9.60303 12.2415 10.5295 12.2415C11.456 12.2415 12.2099 12.9953 12.2099 13.9218V19.3472C12.2099 19.6715 12.4726 19.9343 12.7969 19.9343C15.436 19.9343 17.583 22.0813 17.583 24.7204V25.0965C17.583 25.4207 17.8458 25.6835 18.1701 25.6835C18.4943 25.6835 18.7571 25.4207 18.7571 25.0965V24.7204C18.7571 22.7614 17.8065 21.0212 16.3431 19.9342H28.6508V20.2375C28.6508 21.2797 28.3298 22.2786 27.7226 23.1257L26.0329 25.4833C25.9614 25.5829 25.923 25.7026 25.923 25.8252V39.4129C25.923 39.7372 26.1857 39.9999 26.51 39.9999C26.8343 39.9999 27.0971 39.7372 27.0971 39.4129V26.014L28.6769 23.8098C29.428 22.762 29.8249 21.5268 29.8249 20.2376V19.9343H37.404C38.201 19.9343 38.8493 19.2859 38.8493 18.489V2.72809C38.8492 1.93129 38.2009 1.28296 37.4039 1.28296ZM24.4303 1.17408H25.698C26.1095 1.17408 26.4443 1.50885 26.4443 1.92033V4.21761C26.4443 4.97865 25.8251 5.59778 25.0641 5.59778C24.3031 5.59778 23.684 4.97865 23.684 4.21761V1.92033C23.6841 1.50885 24.0188 1.17408 24.4303 1.17408ZM20.496 1.17408H21.7638C22.1752 1.17408 22.51 1.50885 22.51 1.92033V5.03141C22.51 5.79245 21.8909 6.4115 21.1298 6.4115C20.3688 6.4115 19.7497 5.79245 19.7497 5.03141V1.92033C19.7497 1.50885 20.0845 1.17408 20.496 1.17408ZM16.5617 1.17408H17.8293C18.2408 1.17408 18.5756 1.50885 18.5756 1.92033V5.69461C18.5756 6.45565 17.9565 7.0747 17.1955 7.0747H17.1954C16.4344 7.0747 15.8153 6.45565 15.8153 5.69461V1.92033C15.8154 1.50885 16.1502 1.17408 16.5617 1.17408ZM11.881 1.92033C11.881 1.50885 12.2158 1.17408 12.6272 1.17408H13.895C14.3065 1.17408 14.6412 1.50885 14.6412 1.92033V5.03141C14.6412 5.79245 14.0221 6.4115 13.2611 6.4115C12.5 6.4115 11.8809 5.79245 11.8809 5.03141V1.92033H11.881Z" fill="#688800"/>
<path d="M15.5716 8.95675C15.2519 8.90743 14.9515 9.1273 14.9021 9.44775C14.8621 9.708 14.8418 9.97405 14.8418 10.2384C14.8418 13.0854 17.158 15.4016 20.005 15.4016C22.852 15.4016 25.1682 13.0854 25.1682 10.2384C25.1682 9.75559 25.1002 9.27461 24.9661 8.8085C24.8764 8.49682 24.5504 8.31671 24.2396 8.40673C23.9281 8.49643 23.7482 8.82165 23.8379 9.13317C23.9416 9.49361 23.9942 9.86541 23.9942 10.2383C23.9942 12.438 22.2047 14.2274 20.005 14.2274C17.8053 14.2274 16.0159 12.438 16.0159 10.2383C16.0159 10.0335 16.0315 9.8276 16.0626 9.62613C16.112 9.30576 15.8921 9.00606 15.5716 8.95675Z" fill="#688800"/>
</g>
<defs>
<clipPath id="clip0">
<rect width="40" height="40" fill="white"/>
</clipPath>
</defs>
</svg>
