<svg width="40" height="40" viewBox="0 0 40 40" fill="none" xmlns="http://www.w3.org/2000/svg">
<g clip-path="url(#clip0)">
<path d="M26.8181 8.68449H25.6885C25.8877 8.3373 26.0024 7.93559 26.0024 7.50738V3.91277C26.0024 2.60441 24.938 1.54004 23.6297 1.54004H2.37273C1.06438 1.54051 0 2.60488 0 3.91316V7.50777C0 8.81613 1.06438 9.88051 2.37273 9.88051H3.50219C3.30297 10.2277 3.18828 10.6294 3.18828 11.0576V14.6522C3.18828 15.0805 3.30289 15.4821 3.50219 15.8293H2.37273C1.06438 15.8293 0 16.8936 0 18.2019V21.7965C0 22.8311 0.665859 23.7126 1.59125 24.0364C1.34156 24.412 1.19562 24.8623 1.19562 25.3463V28.9409C1.19562 29.4249 1.34156 29.8752 1.59125 30.2508C0.665859 30.5746 0 31.4561 0 32.4907V36.0853C0 37.3936 1.06438 38.4579 2.37273 38.4579H20.6008C20.931 38.4579 21.1986 38.1903 21.1986 37.8601C21.1986 37.53 20.9309 37.2623 20.6008 37.2623H2.37273C1.72359 37.2623 1.19562 36.7343 1.19562 36.0853V32.4907C1.19562 31.8416 1.72367 31.3136 2.37273 31.3136H3.56836H6.74148H13.9324C14.2627 31.3136 14.5302 31.0459 14.5302 30.7157C14.5302 30.3856 14.2627 30.1179 13.9324 30.1179H6.74141H3.56836C2.91922 30.1179 2.39125 29.5899 2.39125 28.9408V25.3462C2.39125 24.6971 2.9193 24.1691 3.56836 24.1691H12.8431C13.1734 24.1691 13.4409 23.9014 13.4409 23.5713C13.4409 23.2411 13.1734 22.9735 12.8431 22.9735H2.37273C1.72359 22.9735 1.19562 22.4454 1.19562 21.7964V18.2018C1.19562 17.5527 1.72367 17.0246 2.37273 17.0246H5.56102H10.3459H16.2305C16.5608 17.0246 16.8284 16.757 16.8284 16.4268C16.8284 16.0967 16.5608 15.829 16.2305 15.829H10.3459H5.56102C4.91187 15.829 4.38391 15.301 4.38391 14.6519V11.0573C4.38391 10.4082 4.91195 9.88019 5.56102 9.88019H23.6298H26.8181C27.4673 9.88019 27.9952 10.4082 27.9952 11.0573V11.5032C27.9952 11.8333 28.2628 12.101 28.593 12.101C28.9233 12.101 29.1909 11.8333 29.1909 11.5032V11.0573C29.1909 9.74887 28.1265 8.68449 26.8181 8.68449ZM24.8069 7.50777C24.8069 8.15684 24.2788 8.68488 23.6298 8.68488H5.56102H2.37273C1.72359 8.6848 1.19562 8.15676 1.19562 7.50777V3.91316C1.19562 3.2641 1.72367 2.73605 2.37273 2.73605H23.6298C24.2789 2.73605 24.8069 3.2641 24.8069 3.91316V7.50777Z" fill="#688800"/>
<path d="M34.0888 14.5578C33.8123 14.3776 33.4419 14.4556 33.2616 14.7322C33.0813 15.0088 33.1595 15.3792 33.436 15.5594C36.7979 17.7503 38.8049 21.4506 38.8049 25.4577C38.8049 31.9673 33.5089 37.2633 26.9993 37.2633C20.4896 37.2633 15.1936 31.9673 15.1936 25.4577C15.1936 18.9481 20.4896 13.6521 26.9993 13.6521C28.7084 13.6521 30.3569 14.0091 31.8986 14.7133C32.1991 14.8506 32.5536 14.7182 32.6907 14.4179C32.8279 14.1176 32.6956 13.763 32.3953 13.6258C30.6966 12.8499 28.8811 12.4565 26.9993 12.4565C19.8305 12.4565 13.998 18.2889 13.998 25.4577C13.998 32.6265 19.8305 38.4589 26.9993 38.4589C34.1681 38.4589 40.0005 32.6266 40.0005 25.4578C40.0005 21.0449 37.7906 16.9701 34.0888 14.5578Z" fill="#688800"/>
<path d="M33.6229 18.8333C31.8534 17.0638 29.5008 16.0894 26.9985 16.0894C24.4961 16.0894 22.1435 17.0639 20.374 18.8333C18.0086 21.1987 17.0817 24.6762 17.9549 27.909C18.041 28.2278 18.3689 28.4164 18.6878 28.3303C19.0065 28.2442 19.1951 27.9161 19.109 27.5973C18.3471 24.7765 19.1558 21.7423 21.2195 19.6787C22.7631 18.1351 24.8155 17.2849 26.9985 17.2849C29.1816 17.2849 31.234 18.1351 32.7776 19.6787C35.9642 22.8654 35.9642 28.0503 32.7776 31.2369C29.591 34.4235 24.4061 34.4235 21.2195 31.2369C20.6467 30.6641 20.1647 30.0152 19.7868 29.3083C19.6313 29.0171 19.2692 28.9071 18.9779 29.0629C18.6867 29.2184 18.5768 29.5807 18.7325 29.8719C19.1659 30.6826 19.7182 31.4263 20.3741 32.0822C22.2005 33.9087 24.5996 34.8219 26.9986 34.8219C29.3977 34.8219 31.7967 33.9087 33.6231 32.0822C37.2757 28.4296 37.2757 22.4861 33.6229 18.8333Z" fill="#688800"/>
<path d="M27.5969 24.9079V21.6159C28.4685 21.819 29.1063 22.4538 29.1063 23.2039C29.1063 23.5341 29.3739 23.8018 29.7041 23.8018C30.0343 23.8018 30.3019 23.5341 30.3019 23.2039C30.3019 21.8077 29.1336 20.6435 27.597 20.3998V20.0483C27.597 19.7181 27.3294 19.4504 26.9992 19.4504C26.6689 19.4504 26.4014 19.7181 26.4014 20.0483V20.3998C24.8647 20.6436 23.6964 21.8078 23.6964 23.2039C23.6964 24.6001 24.8647 25.7644 26.4014 26.0081V29.3001C25.5297 29.0971 24.8919 28.4622 24.8919 27.7121C24.8919 27.3819 24.6243 27.1143 24.2941 27.1143C23.9639 27.1143 23.6963 27.3819 23.6963 27.7121C23.6963 29.1083 24.8647 30.2725 26.4013 30.5162V30.8678C26.4013 31.1979 26.6689 31.4656 26.9991 31.4656C27.3293 31.4656 27.5969 31.1979 27.5969 30.8678V30.5162C29.1336 30.2725 30.3018 29.1082 30.3018 27.7121C30.3018 26.3159 29.1336 25.1516 27.5969 24.9079ZM26.4014 24.792C25.5297 24.5889 24.8919 23.9541 24.8919 23.2039C24.8919 22.4538 25.5297 21.819 26.4014 21.6159V24.792ZM27.5968 29.3001V26.1241C28.4684 26.3271 29.1062 26.9621 29.1062 27.7121C29.1062 28.4621 28.4684 29.097 27.5968 29.3001Z" fill="#688800"/>
</g>
<defs>
<clipPath id="clip0">
<rect width="40" height="40" fill="white"/>
</clipPath>
</defs>
</svg>
