<svg width="40" height="40" viewBox="0 0 40 40" fill="none" xmlns="http://www.w3.org/2000/svg">
<g clip-path="url(#clip0)">
<path d="M38.1656 14.2026H34.2307L32.2416 6.40201C31.9916 5.42186 30.9908 4.82803 30.0109 5.07779L25.4758 6.2342C25.1699 6.31217 24.9852 6.62342 25.0631 6.92927C25.1412 7.23513 25.4524 7.41974 25.7582 7.34193L30.2933 6.18553C30.6629 6.09154 31.0397 6.31521 31.1339 6.68451L31.3542 7.54865L1.38513 15.1905L1.16482 14.3264C1.1192 14.1475 1.14599 13.9615 1.24021 13.8028C1.33451 13.644 1.48498 13.5315 1.66388 13.4858L22.2778 8.22935C22.5837 8.15138 22.7685 7.84013 22.6905 7.53427C22.6124 7.22842 22.3014 7.04381 21.9954 7.12162L1.38138 12.3781C0.401229 12.628 -0.192832 13.6287 0.057089 14.6088L4.28427 31.1863C4.4956 32.0149 5.24349 32.5677 6.062 32.5676C6.21153 32.5676 6.36356 32.5491 6.51497 32.5105L6.78559 32.4415V33.1448C6.78559 34.1563 7.60848 34.9792 8.61996 34.9792H38.1656C39.1771 34.9792 40 34.1563 40 33.1448V16.037C40 15.0255 39.1771 14.2026 38.1656 14.2026ZM6.78567 31.2618L6.23262 31.4028C5.86333 31.497 5.48622 31.2731 5.392 30.9038L2.80451 20.7567L6.78567 19.7415V31.2618ZM6.78567 16.0369V18.5618L2.52208 19.649L1.66763 16.2981L7.19004 14.8899C6.93739 15.2043 6.78567 15.6032 6.78567 16.0369ZM33.051 14.2025H28.5075L32.7736 13.1147L33.051 14.2025ZM31.6367 8.65615L32.4912 12.0071L23.8813 14.2026H9.88559L31.6367 8.65615ZM38.1656 33.8361H8.62004C8.23887 33.8361 7.92871 33.526 7.92871 33.1448V31.7059V16.037C7.92871 15.6558 8.23879 15.3457 8.62004 15.3457H38.1656C38.5468 15.3457 38.8569 15.6558 38.8569 16.037V33.1448C38.8569 33.526 38.5468 33.8361 38.1656 33.8361Z" fill="#688800"/>
<path d="M22.7606 28.2729H10.3069C9.99129 28.2729 9.73535 28.5287 9.73535 28.8443C9.73535 29.1598 9.99129 29.4156 10.3069 29.4156H22.7606C23.0762 29.4156 23.3322 29.1598 23.3322 28.8443C23.3322 28.5288 23.0763 28.2729 22.7606 28.2729Z" fill="#688800"/>
<path d="M32.2859 18.2224C31.465 18.2224 30.7053 18.4874 30.0861 18.9353C29.448 18.473 28.6826 18.2224 27.8839 18.2224C25.8091 18.2224 24.1211 19.9104 24.1211 21.9852C24.1212 24.06 25.8092 25.7479 27.884 25.7479C28.6827 25.7479 29.448 25.4973 30.0861 25.0351C30.7053 25.4829 31.4651 25.7479 32.2859 25.7479C34.3607 25.7479 36.0487 24.06 36.0487 21.9852C36.0487 19.9104 34.3607 18.2224 32.2859 18.2224ZM28.5277 22.1636C28.5284 22.1783 28.5294 22.1929 28.5303 22.2076C28.533 22.2555 28.5367 22.3032 28.5412 22.3508C28.5423 22.3619 28.5434 22.373 28.5445 22.384C28.6142 23.0525 28.858 23.6804 29.2558 24.2167C28.8464 24.4694 28.3741 24.6047 27.884 24.6047C26.4394 24.6047 25.2643 23.4296 25.2643 21.9851C25.2644 20.5408 26.4395 19.3655 27.884 19.3655C28.3741 19.3655 28.8464 19.5009 29.2558 19.7536C28.8581 20.2899 28.6142 20.9178 28.5445 21.5862C28.5434 21.5973 28.5423 21.6083 28.5412 21.6194C28.5367 21.667 28.5331 21.7147 28.5303 21.7626C28.5294 21.7773 28.5284 21.7919 28.5277 21.8065C28.525 21.8658 28.5232 21.9253 28.5232 21.9851C28.5232 22.0448 28.525 22.1043 28.5277 22.1636ZM32.2861 24.6048C31.5708 24.6048 30.9219 24.3165 30.4487 23.8502C30.439 23.8406 30.4294 23.8309 30.4198 23.8212C30.398 23.799 30.3763 23.7765 30.3553 23.7536C30.3495 23.7472 30.3438 23.7408 30.338 23.7344C30.3133 23.7069 30.289 23.6791 30.2655 23.6506C30.2653 23.6504 30.2652 23.6503 30.2651 23.6501C29.8912 23.1972 29.6664 22.6169 29.6664 21.9851C29.6663 21.3533 29.8912 20.773 30.2651 20.32C30.2652 20.3199 30.2653 20.3198 30.2654 20.3197C30.289 20.2911 30.3134 20.2633 30.3382 20.2357C30.3439 20.2294 30.3495 20.223 30.3553 20.2168C30.3764 20.1937 30.398 20.1712 30.4199 20.149C30.4294 20.1394 30.439 20.1298 30.4487 20.1202C30.9219 19.654 31.5708 19.3655 32.2861 19.3655C33.7305 19.3655 34.9057 20.5407 34.9057 21.9852C34.9057 23.4297 33.7305 24.6048 32.2861 24.6048Z" fill="#688800"/>
<path d="M14.3809 18.594H11.8741C10.6953 18.594 9.73633 19.553 9.73633 20.7318V23.2385C9.73625 24.4174 10.6953 25.3763 11.8741 25.3763H14.3809C15.5596 25.3763 16.5187 24.4174 16.5187 23.2385V20.7318C16.5187 19.5531 15.5597 18.594 14.3809 18.594ZM15.3755 22.2922H14.1562C13.8405 22.2922 13.5846 22.5481 13.5846 22.8638C13.5846 23.1795 13.8405 23.4353 14.1562 23.4353H15.3558C15.2641 23.8899 14.8619 24.2333 14.3808 24.2333H11.8741C11.3929 24.2333 10.9906 23.8899 10.8991 23.4353H12.0987C12.4143 23.4353 12.6702 23.1795 12.6702 22.8638C12.6702 22.5481 12.4144 22.2922 12.0987 22.2922H10.8794V21.7969H12.0987C12.4143 21.7969 12.6702 21.541 12.6702 21.2253C12.6702 20.9097 12.4144 20.6538 12.0987 20.6538H10.8833C10.9233 20.1417 11.3519 19.737 11.8741 19.737H14.3808C14.903 19.737 15.3315 20.1417 15.3716 20.6538H14.1562C13.8405 20.6538 13.5846 20.9096 13.5846 21.2253C13.5846 21.541 13.8405 21.7969 14.1562 21.7969H15.3755V22.2922Z" fill="#688800"/>
<path d="M36.1805 30.7878H16.2796C15.9639 30.7878 15.708 31.0436 15.708 31.3592C15.708 31.6747 15.9639 31.9305 16.2796 31.9305H36.1805C36.4962 31.9305 36.7521 31.6747 36.7521 31.3592C36.7521 31.0436 36.4963 30.7878 36.1805 30.7878Z" fill="#688800"/>
<path d="M12.637 30.7878H10.3079C9.99227 30.7878 9.73633 31.0436 9.73633 31.3592C9.73633 31.6747 9.99219 31.9305 10.3079 31.9305H12.637C12.9527 31.9305 13.2086 31.6747 13.2086 31.3592C13.2086 31.0436 12.9527 30.7878 12.637 30.7878Z" fill="#688800"/>
</g>
<defs>
<clipPath id="clip0">
<rect width="40" height="40" fill="white"/>
</clipPath>
</defs>
</svg>
