<svg width="24" height="24" viewBox="0 0 24 24" fill="none" xmlns="http://www.w3.org/2000/svg">
<g clip-path="url(#clip0)">
<path d="M15.5683 0.539531C14.4172 0.181547 13.2167 0 12 0C8.79469 0 5.78123 1.24823 3.51469 3.51469C1.24823 5.78123 0 8.79469 0 12C0 14.4047 0.70875 16.7248 2.04961 18.7095C3.35789 20.646 5.18348 22.1493 7.32891 23.0568C7.37372 23.0757 7.42022 23.0847 7.46597 23.0847C7.60327 23.0847 7.73372 23.004 7.79058 22.8696C7.86638 22.6904 7.78256 22.4837 7.60336 22.408C5.58375 21.5538 3.86517 20.1385 2.63334 18.3152C1.37152 16.4473 0.704484 14.2636 0.704484 12C0.704484 8.98289 1.87941 6.1463 4.01288 4.01288C6.1463 1.87945 8.98289 0.704531 12 0.704531C13.1457 0.704531 14.2758 0.875344 15.3591 1.21228C15.5447 1.26998 15.7423 1.16634 15.8001 0.980531C15.8578 0.794766 15.7541 0.597328 15.5683 0.539531Z" fill="#949494"/>
<path d="M22.0798 5.48697C20.8567 3.59777 19.1364 2.09364 17.1049 1.13721C16.9289 1.05438 16.719 1.1298 16.6361 1.30586C16.5532 1.48188 16.6288 1.69174 16.8048 1.77461C18.7172 2.67494 20.3368 4.09108 21.4884 5.8698C22.6703 7.6953 23.295 9.81513 23.295 12.0001C23.295 15.0172 22.1201 17.8537 19.9866 19.9872C17.8533 22.1206 15.0167 23.2955 11.9996 23.2955C10.9742 23.2955 9.95807 23.1582 8.97951 22.8874C8.7921 22.8357 8.59799 22.9454 8.54605 23.133C8.49416 23.3204 8.60409 23.5145 8.79159 23.5664C9.83137 23.8541 10.9107 24.0001 11.9996 24.0001C15.2049 24.0001 18.2183 22.7519 20.4848 20.4854C22.7513 18.2188 23.9996 15.2054 23.9996 12.0001C23.9996 9.679 23.3358 7.4268 22.0798 5.48697Z" fill="#949494"/>
<path d="M15.4444 14.9459L12.4985 12.0001L15.4443 9.05423C15.5819 8.9167 15.5819 8.69362 15.4443 8.55609C15.3067 8.41856 15.0837 8.41856 14.9461 8.55609L12.0003 11.5019L9.05445 8.55614C8.91692 8.41861 8.69384 8.41861 8.55631 8.55614C8.41873 8.69367 8.41873 8.91675 8.55631 9.05428L11.5021 12.0001L8.55631 14.9459C8.41873 15.0835 8.41873 15.3065 8.55631 15.4441C8.62507 15.5128 8.71522 15.5473 8.8054 15.5473C8.89559 15.5473 8.98568 15.5128 9.0545 15.4441L12.0003 12.4982L14.9462 15.4441C15.0149 15.5128 15.1051 15.5473 15.1953 15.5473C15.2855 15.5473 15.3756 15.5128 15.4444 15.4441C15.5819 15.3065 15.5819 15.0835 15.4444 14.9459Z" fill="#949494"/>
</g>
<defs>
<clipPath id="clip0">
<rect width="24" height="24" fill="white"/>
</clipPath>
</defs>
</svg>
