<svg width="32" height="32" viewBox="0 0 32 32" fill="none" xmlns="http://www.w3.org/2000/svg">
<g clip-path="url(#clip0)">
<path d="M20.7577 0.719375C19.223 0.242063 17.6222 0 16 0C11.7262 0 7.70831 1.66431 4.68625 4.68625C1.66431 7.70831 0 11.7262 0 16C0 19.2062 0.945 22.2997 2.73281 24.9461C4.47719 27.5281 6.91131 29.5324 9.77188 30.7424C9.83162 30.7676 9.89363 30.7796 9.95463 30.7796C10.1377 30.7796 10.3116 30.6719 10.3874 30.4928C10.4885 30.2539 10.3767 29.9783 10.1378 29.8773C7.445 28.7384 5.15356 26.8513 3.51113 24.4202C1.82869 21.9298 0.939313 19.0181 0.939313 16C0.939313 11.9772 2.50588 8.19506 5.3505 5.3505C8.19506 2.50594 11.9772 0.939375 16 0.939375C17.5276 0.939375 19.0344 1.16712 20.4788 1.61637C20.7263 1.69331 20.9897 1.55512 21.0667 1.30737C21.1437 1.05969 21.0054 0.796438 20.7577 0.719375Z" fill="#688800"/>
<path d="M29.4411 7.31596C27.8103 4.79702 25.5165 2.79152 22.8078 1.51627C22.5731 1.40584 22.2934 1.5064 22.1828 1.74115C22.0723 1.97584 22.173 2.25565 22.4077 2.36615C24.9576 3.56659 27.1171 5.45477 28.6525 7.8264C30.2284 10.2604 31.0614 13.0868 31.0614 16.0001C31.0614 20.0229 29.4947 23.805 26.6502 26.6496C23.8057 29.4941 20.0235 31.0607 16.0007 31.0607C14.6335 31.0607 13.2787 30.8776 11.974 30.5165C11.7241 30.4476 11.4653 30.5939 11.396 30.844C11.3269 31.0939 11.4734 31.3526 11.7234 31.4219C13.1098 31.8055 14.5489 32.0001 16.0007 32.0001C20.2745 32.0001 24.2924 30.3358 27.3144 27.3138C30.3364 24.2918 32.0007 20.2738 32.0007 16.0001C32.0007 12.9053 31.1157 9.9024 29.4411 7.31596Z" fill="#688800"/>
<path d="M20.5912 19.9278L16.6633 16.0001L20.5911 12.0723C20.7745 11.8889 20.7745 11.5915 20.5911 11.4081C20.4077 11.2247 20.1102 11.2247 19.9269 11.4081L15.9991 15.3359L12.0713 11.4082C11.8879 11.2248 11.5905 11.2248 11.4071 11.4082C11.2237 11.5915 11.2237 11.889 11.4071 12.0723L15.3349 16.0001L11.4071 19.9278C11.2237 20.1113 11.2237 20.4086 11.4071 20.5921C11.4988 20.6838 11.619 20.7296 11.7392 20.7296C11.8595 20.7296 11.9796 20.6838 12.0714 20.5921L15.9991 16.6643L19.9269 20.5921C20.0186 20.6838 20.1388 20.7296 20.2591 20.7296C20.3793 20.7296 20.4994 20.6838 20.5912 20.5921C20.7746 20.4086 20.7746 20.1113 20.5912 19.9278Z" fill="#688800"/>
</g>
<defs>
<clipPath id="clip0">
<rect width="32" height="32" fill="white"/>
</clipPath>
</defs>
</svg>
