<svg width="32" height="32" viewBox="0 0 32 32" fill="none" xmlns="http://www.w3.org/2000/svg">
<g clip-path="url(#clip0)">
<path d="M27.3146 4.6863C24.2926 1.66425 20.2746 0 16.0009 0C11.7522 0 7.69152 1.682 4.68722 4.6863C1.66522 7.7083 0.000976562 11.7263 0.000976562 16C0.000976562 19.3316 1.01516 22.5249 2.93385 25.2348C4.81009 27.8846 7.40421 29.8798 10.4357 31.0046C10.6393 31.0802 10.8748 31.0186 11.0149 30.8357C11.0843 30.7449 11.1168 30.6311 11.1168 30.5168V21.3895C11.1168 21.1104 10.8905 20.8842 10.6115 20.8842H6.40103V17.179H10.6115C10.8906 17.179 11.1168 16.9527 11.1168 16.6737V16C11.1168 11.6037 15.2879 7.74736 20.0431 7.74736H22.2326V11.4526H20.0431C18.6172 11.4526 17.3206 11.863 16.3923 12.6082C15.365 13.4327 14.822 14.6055 14.822 16V16.6737C14.822 16.9527 15.0483 17.1789 15.3273 17.1789H17.3193C17.5983 17.1789 17.8245 16.9527 17.8245 16.6737C17.8245 16.3946 17.5983 16.1684 17.3193 16.1684H15.8325V16C15.8325 13.3895 18.1007 12.4632 20.043 12.4632H22.7377C23.0168 12.4632 23.243 12.2369 23.243 11.9579V7.24211C23.243 6.96305 23.0167 6.73686 22.7377 6.73686H20.043C17.5731 6.73686 15.0697 7.71936 13.1746 9.43242C11.1959 11.2211 10.1061 13.5535 10.1061 16V16.1685H5.89565C5.61659 16.1685 5.3904 16.3947 5.3904 16.6737V21.3895C5.3904 21.6686 5.61665 21.8948 5.89565 21.8948H10.1061V29.7853C4.63728 27.4422 1.01147 21.9929 1.01147 16C1.01147 7.73474 7.73571 1.0105 16.0008 1.0105C24.2569 1.0105 30.9904 7.74386 30.9904 16C30.9904 24.2652 24.2661 30.9894 16.0009 30.9894C15.9456 30.9894 15.8895 30.9891 15.8324 30.9883V21.8947H22.7377C23.0168 21.8947 23.243 21.6685 23.243 21.3895V16.6737C23.243 16.3946 23.0167 16.1684 22.7377 16.1684H19.7804C19.5014 16.1684 19.2752 16.3947 19.2752 16.6737C19.2752 16.9527 19.5014 17.1789 19.7804 17.1789H22.2325V20.8841H15.3273C15.0482 20.8841 14.822 21.1104 14.822 21.3894V31.4792C14.822 31.7495 15.035 31.9724 15.3051 31.984C15.5554 31.9947 15.7831 31.9999 16.001 31.9999C20.2747 31.9999 24.2927 30.3357 27.3147 27.3136C30.319 24.3093 32.001 20.2486 32.001 15.9998C32.0009 11.7263 30.3366 7.7083 27.3146 4.6863Z" fill="#688800"/>
</g>
<defs>
<clipPath id="clip0">
<rect width="32" height="32" fill="white"/>
</clipPath>
</defs>
</svg>
