<svg width="40" height="38" viewBox="0 0 40 38" fill="none" xmlns="http://www.w3.org/2000/svg">
<path d="M38.1616 13.7175H29.1909L22.8848 1.55836C22.6587 1.12242 22.2764 0.800623 21.8083 0.652186C21.3401 0.503748 20.8423 0.546561 20.4063 0.772655C20.2548 0.851248 20.1191 0.948436 20 1.05961C19.8808 0.948514 19.7452 0.851248 19.5936 0.772655C19.1577 0.546561 18.6598 0.503826 18.1916 0.652186C17.7235 0.800545 17.3412 1.12242 17.1152 1.55836L10.4681 14.3749C10.242 14.8109 10.1992 15.3088 10.3477 15.7769C10.3983 15.9366 10.4706 16.0856 10.5594 16.2225H1.83844C1.47086 16.2225 1.17188 15.9235 1.17188 15.5559C1.17188 15.1884 1.47094 14.8894 1.83844 14.8894H8.51852C8.84211 14.8894 9.10445 14.6271 9.10445 14.3034C9.10445 13.9798 8.84211 13.7175 8.51852 13.7175H1.83844C0.824766 13.7175 0 14.5423 0 15.5559C0 16.3966 0.567344 17.1068 1.33914 17.3249L4.73281 35.4242C4.95117 36.5892 5.97 37.4347 7.15531 37.4347H32.8448C34.0301 37.4347 35.0488 36.5892 35.2673 35.4242L38.6609 17.3248C39.4327 17.1068 40 16.3966 40 15.5559C40 14.5422 39.1752 13.7175 38.1616 13.7175ZM20.9459 1.81305C21.1039 1.73109 21.2845 1.71555 21.4541 1.76937C21.6238 1.82312 21.7625 1.93984 21.8445 2.09789L28.4915 14.9145C28.5734 15.0726 28.589 15.2531 28.5352 15.4228C28.4814 15.5926 28.3647 15.7312 28.2066 15.8131C28.0486 15.8952 27.868 15.9106 27.6983 15.8569C27.5285 15.8031 27.3899 15.6864 27.308 15.5284L20.661 2.71164C20.4918 2.38539 20.6196 1.98226 20.9459 1.81305ZM28.7484 17.3945L28.1939 23.1115H20.5859V17.3945H28.7484ZM20 3.98242L26.2678 16.0677C26.2955 16.1212 26.3256 16.1727 26.3579 16.2225H13.6421C13.6744 16.1727 13.7045 16.1212 13.7322 16.0678L14.3434 14.8895H23.2617C23.5853 14.8895 23.8477 14.6272 23.8477 14.3035C23.8477 13.9799 23.5853 13.7176 23.2617 13.7176H14.9511L20 3.98242ZM11.5084 14.9145L18.1555 2.09781C18.2375 1.93976 18.3761 1.82305 18.5459 1.7693C18.6123 1.7482 18.6803 1.73781 18.748 1.73781C18.8534 1.73781 18.958 1.76312 19.0541 1.81297C19.3804 1.98226 19.5082 2.38531 19.339 2.71156L12.6919 15.5282C12.6099 15.6863 12.4713 15.803 12.3016 15.8567C12.132 15.9105 11.9514 15.895 11.7933 15.813C11.6352 15.731 11.5185 15.5924 11.4648 15.4227C11.4109 15.2531 11.4265 15.0726 11.5084 14.9145ZM2.54445 17.3945H10.0743L10.6287 23.1115H3.61641L2.54445 17.3945ZM3.83617 24.2833H10.7424L11.2969 30.0002H4.90805L3.83617 24.2833ZM7.15523 36.2629C6.53352 36.2629 5.99914 35.8194 5.88461 35.2083L5.12781 31.1721H11.4105L11.9042 36.2629H7.15523ZM19.4141 36.2629H13.0815L12.5878 31.1721H19.4141V36.2629ZM19.4141 30.0002H12.4741L11.9197 24.2833H19.4141V30.0002ZM19.4141 23.1115H11.8061L11.2516 17.3945H19.4141V23.1115ZM26.9185 36.2629H20.5859V31.1721H27.4122L26.9185 36.2629ZM27.5259 30.0003H20.5859V24.2834H28.0803L27.5259 30.0003ZM34.1154 35.2083C34.0009 35.8194 33.4664 36.2629 32.8447 36.2629H28.0958L28.5895 31.1721H34.8722L34.1154 35.2083ZM35.092 30.0003H28.7032L29.2577 24.2834H36.1639L35.092 30.0003ZM36.3836 23.1114H29.3713L29.9258 17.3944H37.4555L36.3836 23.1114ZM38.1616 16.2226H38.152C38.1516 16.2226 38.1513 16.2226 38.1509 16.2226H29.4406C29.5294 16.0856 29.6016 15.9367 29.6523 15.777C29.7448 15.4853 29.763 15.182 29.7089 14.8895H38.1616C38.5291 14.8895 38.8281 15.1885 38.8281 15.556C38.8281 15.9235 38.5291 16.2226 38.1616 16.2226Z" fill="#688800"/>
</svg>
