<svg width="32" height="32" viewBox="0 0 32 32" fill="none" xmlns="http://www.w3.org/2000/svg">
<path d="M27.3137 4.68631C24.2917 1.66425 20.2737 0 16 0C11.7263 0 7.70831 1.66425 4.68631 4.68631C1.66425 7.70831 0 11.7263 0 16C0 20.2737 1.66425 24.2917 4.68631 27.3137C7.70831 30.3358 11.7263 32 16 32C20.2737 32 24.2917 30.3358 27.3137 27.3137C30.3357 24.2916 32 20.2737 32 16C32 11.7263 30.3358 7.70831 27.3137 4.68631ZM16 30.9895C7.73475 30.9895 1.0105 24.2653 1.0105 16C1.0105 7.73475 7.73475 1.0105 16 1.0105C24.2653 1.0105 30.9895 7.73475 30.9895 16C30.9895 24.2653 24.2653 30.9895 16 30.9895Z" fill="#688800"/>
<path d="M21.7396 6.06348H10.259C7.945 6.06348 6.0625 7.94604 6.0625 10.26V21.7407C6.0625 24.0546 7.94506 25.9372 10.259 25.9372H21.7397C24.0536 25.9372 25.9362 24.0546 25.9362 21.7407V10.26C25.9361 7.94598 24.0536 6.06348 21.7396 6.06348ZM24.9256 21.7406C24.9256 23.4974 23.4964 24.9266 21.7396 24.9266H10.259C8.50225 24.9266 7.073 23.4974 7.073 21.7406V10.26C7.073 8.50323 8.50225 7.07398 10.259 7.07398H21.7397C23.4964 7.07398 24.9257 8.50323 24.9257 10.26V21.7406H24.9256Z" fill="#688800"/>
<path d="M21.213 15.7015C21.0635 13.0432 18.9004 10.9047 16.2406 10.7847C13.1714 10.6463 10.6447 13.1742 10.7849 16.2439C10.9064 18.9039 13.0467 21.066 15.7054 21.2132C16.8273 21.2754 17.878 20.9803 18.7556 20.4324C19.0289 20.2617 19.0735 19.8815 18.8456 19.6537C18.8432 19.6512 18.8408 19.6489 18.8384 19.6465C18.6724 19.4804 18.4148 19.4553 18.2152 19.5793C17.5595 19.9867 16.7845 20.2194 15.9554 20.2107C13.6144 20.186 11.7256 18.2204 11.7916 15.8803C11.8579 13.5252 13.8675 11.6477 16.2701 11.7983C18.3405 11.928 20.0257 13.5789 20.1963 15.6464C20.2657 16.4885 20.0846 17.2842 19.7207 17.9687C19.6165 18.1647 19.6486 18.405 19.8055 18.562C19.8081 18.5645 19.8107 18.5672 19.8133 18.5697C20.0491 18.8055 20.4479 18.7501 20.6055 18.4562C21.0419 17.6421 21.2692 16.7001 21.213 15.7015Z" fill="#688800"/>
<path d="M21.3894 11.2846C22.1335 11.2846 22.7367 10.6814 22.7367 9.93722C22.7367 9.19308 22.1335 8.58984 21.3894 8.58984C20.6452 8.58984 20.042 9.19308 20.042 9.93722C20.042 10.6814 20.6452 11.2846 21.3894 11.2846Z" fill="#688800"/>
</svg>
