<svg width="24" height="24" viewBox="0 0 24 24" fill="none" xmlns="http://www.w3.org/2000/svg">
<path d="M20.4853 3.51473C18.2188 1.24819 15.2053 0 12 0C8.79473 0 5.78123 1.24819 3.51473 3.51473C1.24819 5.78123 0 8.79473 0 12C0 15.2053 1.24819 18.2188 3.51473 20.4853C5.78123 22.7518 8.79473 24 12 24C15.2053 24 18.2188 22.7518 20.4853 20.4853C22.7518 18.2187 24 15.2053 24 12C24 8.79473 22.7518 5.78123 20.4853 3.51473ZM12 23.2421C5.80106 23.2421 0.757875 18.1989 0.757875 12C0.757875 5.80106 5.80106 0.757875 12 0.757875C18.1989 0.757875 23.2421 5.80106 23.2421 12C23.2421 18.1989 18.1989 23.2421 12 23.2421Z" fill="white"/>
<path d="M16.3047 4.54761H7.69425C5.95875 4.54761 4.54688 5.95953 4.54688 7.69498V16.3055C4.54688 18.041 5.9588 19.4529 7.69425 19.4529H16.3048C18.0402 19.4529 19.4521 18.041 19.4521 16.3055V7.69498C19.4521 5.95948 18.0402 4.54761 16.3047 4.54761ZM18.6942 16.3055C18.6942 17.623 17.6223 18.695 16.3047 18.695H7.69425C6.37669 18.695 5.30475 17.623 5.30475 16.3055V7.69498C5.30475 6.37742 6.37669 5.30548 7.69425 5.30548H16.3048C17.6223 5.30548 18.6943 6.37742 18.6943 7.69498V16.3055H18.6942Z" fill="white"/>
<path d="M15.9093 11.7762C15.7972 9.78242 14.1748 8.17849 12.18 8.08854C9.87803 7.98476 7.98302 9.88067 8.08816 12.1829C8.17933 14.1779 9.78457 15.7995 11.7785 15.9099C12.62 15.9566 13.408 15.7352 14.0662 15.3243C14.2712 15.1963 14.3046 14.9111 14.1337 14.7403C14.1319 14.7384 14.1301 14.7366 14.1283 14.7349C14.0038 14.6103 13.8106 14.5915 13.6609 14.6845C13.1692 14.9901 12.5879 15.1645 11.966 15.158C10.2103 15.1395 8.79372 13.6653 8.84317 11.9102C8.89291 10.1439 10.4001 8.73579 12.2021 8.84871C13.7549 8.94603 15.0188 10.1842 15.1467 11.7348C15.1988 12.3664 15.063 12.9632 14.79 13.4765C14.7119 13.6235 14.736 13.8038 14.8537 13.9215C14.8556 13.9234 14.8576 13.9254 14.8595 13.9273C15.0363 14.1042 15.3355 14.0626 15.4536 13.8422C15.7809 13.2316 15.9514 12.5251 15.9093 11.7762Z" fill="white"/>
<path d="M16.0428 8.46345C16.6009 8.46345 17.0533 8.01102 17.0533 7.45291C17.0533 6.89481 16.6009 6.44238 16.0428 6.44238C15.4847 6.44238 15.0322 6.89481 15.0322 7.45291C15.0322 8.01102 15.4847 8.46345 16.0428 8.46345Z" fill="white"/>
</svg>
