<svg width="40" height="40" viewBox="0 0 40 40" fill="none" xmlns="http://www.w3.org/2000/svg">
<path d="M32.3828 14.7287H29.8645L30.6232 6.01701C30.6247 6.00123 30.6249 5.98569 30.625 5.97014C30.625 5.96881 30.6251 5.96756 30.6251 5.96623C30.6251 5.966 30.6251 5.96584 30.6251 5.96561C30.6251 5.7285 30.4821 5.51951 30.2718 5.42865C30.27 5.42787 30.2683 5.42693 30.2665 5.42615C30.2535 5.42068 30.24 5.416 30.2264 5.41147C30.2213 5.40982 30.2164 5.40779 30.2114 5.40623C30.2003 5.40287 30.1889 5.40022 30.1775 5.39748C30.1696 5.39561 30.1619 5.39334 30.1539 5.39178C30.1439 5.38982 30.1336 5.38857 30.1235 5.38709C30.1139 5.38568 30.1046 5.38404 30.095 5.38318C30.0933 5.38303 30.0918 5.38271 30.0902 5.38256C30.0799 5.38162 30.0697 5.38178 30.0595 5.38139C30.0526 5.38115 30.0459 5.38037 30.039 5.38037H30.0317C30.0311 5.38037 30.0304 5.38037 30.0299 5.38037H18.0477C17.7243 5.38037 17.4618 5.64287 17.4618 5.96631C17.4618 6.28897 17.7243 6.55225 18.0477 6.55225H29.4003L28.2343 19.941C28.2341 19.942 28.2341 19.943 28.2339 19.944L27.9397 23.3222H7.57956L7.92011 19.8068H11.7968C12.1204 19.8068 12.3827 19.5444 12.3827 19.2208C12.3827 18.8972 12.1204 18.6349 11.7968 18.6349H8.0337L8.75277 11.2134H14.9227C15.2464 11.2134 15.5087 10.951 15.5087 10.6274C15.5087 10.3038 15.2464 10.0415 14.9227 10.0415H8.86636L9.20449 6.55225H15.704C16.0266 6.55225 16.2899 6.28897 16.2899 5.96631C16.2899 5.64287 16.0266 5.38037 15.704 5.38037H8.67269C8.67238 5.38037 8.67214 5.38045 8.67183 5.38045C8.3966 5.38037 8.15784 5.57412 8.10011 5.84272C8.09972 5.84467 8.09902 5.84655 8.09863 5.8485C8.09566 5.86311 8.0937 5.87803 8.09175 5.89303C8.0912 5.8978 8.09019 5.90233 8.08972 5.90709C8.08964 5.90803 8.08941 5.90889 8.08933 5.90983L7.68901 10.0415H0.58594C0.262267 10.0415 0 10.3038 0 10.6274C0 10.951 0.262267 11.2134 0.58594 11.2134H7.57542L6.85636 18.6349H4.7658C4.44213 18.6349 4.17986 18.8972 4.17986 19.2208C4.17986 19.5444 4.44213 19.8068 4.7658 19.8068H6.74284L6.35127 23.8475C6.3512 23.8481 6.3512 23.8487 6.35112 23.8493L5.74573 30.0977C5.74565 30.0984 5.74557 30.0991 5.74549 30.0998L5.74526 30.102C5.74448 30.1102 5.74455 30.1181 5.74409 30.1262C5.74354 30.137 5.74244 30.1476 5.74244 30.1585C5.74244 30.159 5.74252 30.1595 5.74252 30.16C5.74252 30.1751 5.74362 30.1899 5.74471 30.2048C5.74518 30.2095 5.74502 30.2144 5.74557 30.2191C5.74713 30.2342 5.74971 30.2491 5.75244 30.264C5.75323 30.2684 5.75362 30.2728 5.75448 30.2771C5.75674 30.2884 5.75994 30.2992 5.76291 30.3102C5.76494 30.318 5.76659 30.3259 5.76893 30.3334C5.76963 30.3355 5.77057 30.3376 5.77119 30.3398C5.79955 30.427 5.84768 30.5052 5.91049 30.5691C5.91166 30.5703 5.9126 30.5716 5.91377 30.5727C5.92002 30.579 5.92682 30.5846 5.93338 30.5905C5.97377 30.6276 6.0194 30.659 6.06932 30.6836C6.07971 30.6888 6.08995 30.6941 6.10057 30.6986C6.10377 30.7 6.10721 30.7009 6.11049 30.7022C6.12518 30.708 6.13995 30.7137 6.15518 30.7184C6.15659 30.7188 6.15791 30.7191 6.15932 30.7195C6.17666 30.7247 6.19416 30.7292 6.21206 30.7329C6.2144 30.7334 6.21682 30.7335 6.21909 30.734C6.23612 30.7372 6.25323 30.7399 6.27065 30.7416C6.27104 30.7416 6.27135 30.7417 6.27174 30.7418C6.29096 30.7437 6.31002 30.7446 6.32893 30.7446C6.32917 30.7446 6.32948 30.7445 6.32979 30.7445H8.93824C9.22629 32.9284 11.0986 34.6198 13.3599 34.6198C15.6211 34.6198 17.4933 32.9284 17.7814 30.7445H27.1798C27.4679 32.9284 29.3401 34.6198 31.6014 34.6198C33.8626 34.6198 35.735 32.9284 36.0231 30.7445H38.6322C38.6326 30.7445 38.633 30.7446 38.6334 30.7446C38.653 30.7446 38.6722 30.7434 38.6912 30.7416C38.6947 30.7413 38.698 30.7405 38.7014 30.7402C38.7166 30.7384 38.7318 30.7362 38.7466 30.7333C38.753 30.732 38.7592 30.7303 38.7655 30.7288C38.777 30.7262 38.7886 30.7234 38.7998 30.72C38.8075 30.7177 38.8149 30.7151 38.8224 30.7125C38.832 30.7092 38.8416 30.7058 38.8511 30.702C38.8592 30.6988 38.867 30.6952 38.8748 30.6917C38.8834 30.6877 38.892 30.6837 38.9004 30.6794C38.9084 30.6753 38.916 30.6711 38.9237 30.6667C38.9317 30.662 38.9397 30.6572 38.9476 30.6522C38.9549 30.6475 38.9623 30.6427 38.9693 30.6377C38.9773 30.6322 38.9848 30.6263 38.9926 30.6204C38.999 30.6153 39.0055 30.6103 39.0117 30.605C39.0198 30.5982 39.0273 30.5911 39.035 30.5838C39.0403 30.5788 39.0459 30.5738 39.051 30.5684C39.0591 30.5602 39.0669 30.5514 39.0746 30.5426C39.0787 30.5378 39.083 30.5332 39.087 30.5284C39.0956 30.5177 39.1034 30.5068 39.1112 30.4958C39.1139 30.492 39.1169 30.4884 39.1194 30.4845C39.129 30.4702 39.138 30.4555 39.1462 30.4403C39.1469 30.4394 39.1475 30.4385 39.1479 30.4375C39.1567 30.4212 39.1648 30.4046 39.1721 30.3874C39.1741 30.3825 39.1757 30.3774 39.1777 30.3725C39.1824 30.3604 39.1871 30.3483 39.1911 30.3357C39.1937 30.3276 39.1955 30.3192 39.1978 30.311C39.2004 30.3012 39.2031 30.2916 39.2053 30.2816C39.2073 30.2728 39.2085 30.2637 39.21 30.2548C39.2113 30.2469 39.213 30.2391 39.2141 30.2311C39.2389 30.032 39.6977 26.3508 39.9027 23.9705C39.9029 23.9683 39.903 23.9659 39.9032 23.9636C39.9622 23.2775 40 22.6997 40 22.3459C40 18.1458 36.583 14.7287 32.3828 14.7287ZM29.7624 15.9007H32.1595L31.8533 19.4161H29.4562L29.7624 15.9007ZM13.3601 33.4478C11.5462 33.4478 10.0706 31.9722 10.0706 30.1584C10.0706 28.3447 11.5463 26.869 13.3601 26.869C15.1738 26.869 16.6494 28.3447 16.6494 30.1584C16.6494 31.9722 15.1738 33.4478 13.3601 33.4478ZM31.6014 33.4478C29.7876 33.4478 28.3121 31.9722 28.3121 30.1584C28.3121 28.3447 29.7877 26.869 31.6014 26.869C33.4152 26.869 34.8908 28.3447 34.8908 30.1584C34.8908 31.9722 33.4152 33.4478 31.6014 33.4478ZM38.1144 29.5723H36.0233C35.7353 27.3883 33.8629 25.6968 31.6015 25.6968C29.3403 25.6968 27.4679 27.3883 27.18 29.5723H17.7816C17.4937 27.3883 15.6214 25.6968 13.3601 25.6968C11.0987 25.6968 9.22629 27.3883 8.93832 29.5723H6.97393L7.46604 24.4938H28.4767V24.4941C28.477 24.4941 28.4772 24.4941 28.4775 24.4941C28.4971 24.4941 28.5166 24.493 28.5358 24.4911C28.5394 24.4908 28.5429 24.49 28.5465 24.4895C28.5618 24.4877 28.5771 24.4855 28.5921 24.4826C28.5985 24.4812 28.6049 24.4794 28.6113 24.4779C28.623 24.4751 28.6347 24.4723 28.6461 24.4689C28.6539 24.4665 28.6614 24.4637 28.6689 24.4611C28.6788 24.4576 28.6886 24.4543 28.6982 24.4504C28.7064 24.447 28.7143 24.4433 28.7222 24.4395C28.7309 24.4355 28.7396 24.4315 28.7479 24.4272C28.7559 24.4229 28.7637 24.4184 28.7716 24.4139C28.7796 24.4092 28.7876 24.4044 28.7954 24.3994C28.803 24.3945 28.8102 24.3894 28.8175 24.3842C28.8252 24.3787 28.8327 24.3731 28.8402 24.3672C28.8469 24.3619 28.8535 24.3563 28.8601 24.3506C28.8675 24.3442 28.8748 24.3376 28.8818 24.3308C28.8878 24.3251 28.8937 24.3193 28.8995 24.3133C28.9065 24.3059 28.9133 24.2983 28.92 24.2906C28.9253 24.2845 28.9304 24.2784 28.9354 24.2722C28.9419 24.264 28.9481 24.2555 28.9542 24.247C28.9588 24.2406 28.9632 24.2342 28.9676 24.2276C28.9733 24.2188 28.9788 24.2097 28.984 24.2005C28.988 24.1936 28.9921 24.1868 28.9957 24.1797C29.0006 24.1705 29.0048 24.1611 29.0093 24.1517C29.0127 24.1441 29.0162 24.1367 29.0193 24.1289C29.0232 24.1197 29.0264 24.1102 29.0297 24.1008C29.0326 24.0924 29.0357 24.084 29.0382 24.0754C29.0408 24.0664 29.0429 24.0571 29.0453 24.0479C29.0475 24.0386 29.05 24.0294 29.0518 24.0199C29.0536 24.0107 29.0547 24.0013 29.0561 23.9919C29.0575 23.9822 29.0592 23.9727 29.0601 23.9629C29.0603 23.9615 29.0606 23.9601 29.0607 23.9587L29.3543 20.5876H32.3826C34.1779 20.5876 34.9876 21.5178 35.8447 22.5026C36.5519 23.3152 37.3416 24.2219 38.6837 24.443C38.5133 26.2454 38.2377 28.5591 38.1144 29.5723ZM38.7839 23.2688C37.9132 23.0913 37.3775 22.4792 36.7285 21.7336C35.9169 20.8011 34.926 19.6632 33.0265 19.4512L33.3297 15.9709C36.4362 16.4303 38.8281 19.1138 38.8281 22.3461C38.8281 22.5657 38.8117 22.8847 38.7839 23.2688Z" fill="#688800"/>
<path d="M13.3604 28.0098C12.1757 28.0098 11.2119 28.9735 11.2119 30.1582C11.2119 31.3429 12.1757 32.3067 13.3604 32.3067C14.545 32.3067 15.5088 31.3429 15.5088 30.1582C15.5088 28.9736 14.545 28.0098 13.3604 28.0098ZM13.3604 31.1348C12.8218 31.1348 12.3838 30.6967 12.3838 30.1582C12.3838 29.6197 12.8218 29.1816 13.3604 29.1816C13.8989 29.1816 14.3369 29.6197 14.3369 30.1582C14.3369 30.6967 13.8988 31.1348 13.3604 31.1348Z" fill="#688800"/>
<path d="M31.6016 28.0098C30.417 28.0098 29.4531 28.9735 29.4531 30.1582C29.4531 31.3429 30.417 32.3067 31.6016 32.3067C32.7862 32.3067 33.75 31.3429 33.75 30.1582C33.75 28.9736 32.7862 28.0098 31.6016 28.0098ZM31.6016 31.1348C31.0631 31.1348 30.625 30.6967 30.625 30.1582C30.625 29.6197 31.0631 29.1816 31.6016 29.1816C32.1401 29.1816 32.5781 29.6197 32.5781 30.1582C32.5781 30.6967 32.1401 31.1348 31.6016 31.1348Z" fill="#688800"/>
<path d="M5.54716 14.7285H2.68262C2.35895 14.7285 2.09668 14.9907 2.09668 15.3142C2.09668 15.6377 2.35895 15.8999 2.68262 15.8999H5.54716C5.87083 15.8999 6.1331 15.6377 6.1331 15.3142C6.1331 14.9907 5.87083 14.7285 5.54716 14.7285Z" fill="#688800"/>
</svg>
