<svg width="32" height="32" viewBox="0 0 32 32" fill="none" xmlns="http://www.w3.org/2000/svg">
<path d="M27.3093 4.68628C24.2878 1.66431 20.2705 0 15.9976 0C11.7244 0 7.70703 1.66431 4.68555 4.68628C1.66406 7.70825 0 11.7263 0 16C0 18.9402 0.804443 21.8149 2.32617 24.3132C2.46094 24.5344 2.74951 24.6045 2.97046 24.4697C3.19165 24.335 3.26147 24.0466 3.12695 23.8257C1.69458 21.4744 0.9375 18.7681 0.9375 16C0.9375 11.9766 2.50391 8.19409 5.34839 5.34912C8.19287 2.50415 11.9749 0.9375 15.9976 0.9375C20.02 0.9375 23.802 2.50415 26.6465 5.34912C29.491 8.19409 31.0574 11.9768 31.0574 16C31.0574 20.0232 29.491 23.8059 26.6465 26.6509C23.802 29.4958 20.02 31.0625 15.9976 31.0625C11.3794 31.0625 7.08057 28.9866 4.20312 25.3672C4.04199 25.1646 3.74683 25.1309 3.54443 25.292C3.3418 25.4531 3.30811 25.748 3.46924 25.9507C6.52563 29.7952 11.092 32 15.9976 32C20.2705 32 24.2878 30.3357 27.3093 27.3137C30.3308 24.2917 31.9949 20.2737 31.9949 16C31.9949 11.7263 30.3308 7.70825 27.3093 4.68628Z" fill="#688800"/>
<path d="M13.4293 13.2884L15.0377 12.0772C15.2901 11.8871 15.4219 11.575 15.3822 11.263C15.3275 10.8348 15.3028 10.3985 15.3089 9.96616C15.3219 9.0394 14.6197 8.21323 13.7105 8.0853L12.3092 7.88779C11.3604 7.75425 10.4822 8.00815 9.83649 8.60312C9.18977 9.19907 8.86433 10.0548 8.92023 11.0128C9.00471 12.4662 9.29304 13.9 9.77692 15.275C10.8577 18.3463 12.8311 20.9674 15.4837 22.8551C16.671 23.7 17.9693 24.3736 19.3426 24.8565C19.7103 24.9859 20.0792 25.0501 20.4381 25.0501C20.9622 25.0501 21.4649 24.9129 21.9107 24.6419C22.6612 24.1856 23.1483 23.4117 23.2818 22.4627L23.4752 21.0902C23.6036 20.18 22.9928 19.2445 22.1138 19.005C21.7015 18.8927 21.2938 18.7503 20.9017 18.5819C20.6036 18.454 20.2572 18.4962 19.9976 18.6917L18.4019 19.8934C18.2618 19.9989 18.0711 20.0045 17.9276 19.9073C17.0218 19.2953 16.2044 18.5594 15.4976 17.7203C15.3309 17.5223 15.035 17.4969 14.8372 17.6637C14.6392 17.8304 14.6138 18.1261 14.7806 18.3241C15.543 19.2296 16.4251 20.0235 17.4027 20.6842C17.8778 21.0055 18.5062 20.9886 18.9659 20.6422L20.5484 19.4505C20.9754 19.6329 21.419 19.7872 21.8673 19.9095C22.2918 20.0252 22.6095 20.516 22.547 20.9596L22.3536 22.3319C22.2598 22.9974 21.9295 23.5333 21.4237 23.8409C20.9171 24.1488 20.2884 24.1954 19.6534 23.972C18.3631 23.5182 17.1431 22.8853 16.0272 22.0914C13.533 20.3163 11.6776 17.8517 10.6612 14.9637C10.2066 13.6715 9.93562 12.3238 9.85603 10.9581C9.81696 10.286 10.0355 9.69443 10.4715 9.29258C10.9071 8.89145 11.5128 8.72226 12.1783 8.81601L13.5797 9.01352C14.0152 9.0748 14.3778 9.50522 14.3714 9.95298C14.3651 10.4178 14.3907 10.8868 14.4481 11.3478L12.8656 12.5394C12.4058 12.8856 12.2159 13.4847 12.3931 14.0304C12.6666 14.8709 13.0294 15.6869 13.4713 16.4552C13.6004 16.6795 13.887 16.7567 14.1114 16.6278C14.3358 16.4986 14.4129 16.212 14.284 15.9876C13.8741 15.2755 13.5379 14.5196 13.285 13.7406C13.2313 13.5755 13.2894 13.3939 13.4293 13.2884Z" fill="#688800"/>
</svg>
