<svg width="32" height="32" viewBox="0 0 32 32" fill="none" xmlns="http://www.w3.org/2000/svg">
<path d="M27.3137 4.68631C24.2917 1.66425 20.2737 0 16 0C11.7263 0 7.70831 1.66425 4.68631 4.68631C1.66425 7.70831 0 11.7263 0 16C0 20.2737 1.66425 24.2917 4.68631 27.3137C7.70831 30.3358 11.7263 32 16 32C20.2737 32 24.2917 30.3358 27.3137 27.3137C30.3357 24.2916 32 20.2737 32 16C32 11.7263 30.3358 7.70831 27.3137 4.68631ZM16 30.9895C7.73475 30.9895 1.0105 24.2653 1.0105 16C1.0105 7.73475 7.73475 1.0105 16 1.0105C24.2653 1.0105 30.9895 7.73475 30.9895 16C30.9895 24.2653 24.2653 30.9895 16 30.9895Z" fill="#688800"/>
<path d="M25.062 6.16487C24.9068 6.048 24.6984 6.0305 24.5259 6.11975L4.98902 16.225C4.82014 16.3123 4.71458 16.4871 4.71583 16.6772C4.71708 16.8674 4.82502 17.0407 4.99514 17.1257L10.1054 19.6807V24.7436C10.1054 24.8761 10.1505 25.0072 10.2416 25.1034C10.3425 25.2099 10.4766 25.2632 10.6107 25.2632C10.6952 25.2632 10.7797 25.2421 10.8561 25.1996L16.7026 21.9516L21.1775 23.8693C21.2726 23.9101 21.378 23.927 21.4799 23.908C21.6896 23.8688 21.8455 23.7082 21.8852 23.5097L23.0174 17.8487C23.0799 17.536 22.8408 17.2443 22.5219 17.2443C22.281 17.2442 22.0737 17.4142 22.0265 17.6503L21.0163 22.7008L16.8729 20.9251C16.7293 20.8635 16.5652 20.8719 16.4285 20.9477L11.116 23.8992V19.3684C11.116 19.1771 11.0078 19.0022 10.8366 18.9165L6.33571 16.6661L24.0563 7.50018L22.5185 15.1891C22.456 15.5018 22.6951 15.7935 23.014 15.7935C23.2548 15.7935 23.4622 15.6234 23.5095 15.3873L25.2535 6.6675C25.2915 6.47712 25.2171 6.28168 25.062 6.16487Z" fill="#688800"/>
<path d="M21.7856 10.2971C21.6268 10.0961 21.3425 10.0456 21.1243 10.18L12.3664 15.5695C12.217 15.6615 12.126 15.8244 12.126 15.9998V21.3893C12.1259 21.6237 12.287 21.8272 12.515 21.8811C12.5539 21.8903 12.5928 21.8947 12.6313 21.8947C12.8192 21.8947 12.9961 21.7893 13.083 21.6153L15.0674 17.6466L21.7463 10.9676C21.9275 10.7864 21.9444 10.4982 21.7856 10.2971ZM14.2949 16.9899C14.2566 17.0283 14.2246 17.0726 14.2003 17.1212L13.1365 19.2489V16.2821L17.9887 13.2961L14.2949 16.9899Z" fill="#688800"/>
</svg>
