<svg width="40" height="40" viewBox="0 0 40 40" fill="none" xmlns="http://www.w3.org/2000/svg">
<g clip-path="url(#clip0)">
<path d="M38.4158 8.82541L20.2542 0.0577539C20.0932 -0.0199023 19.9057 -0.0199023 19.7448 0.0577539L1.58313 8.82541C1.38063 8.92315 1.25195 9.12822 1.25195 9.35307V30.646C1.25195 30.8708 1.38063 31.0759 1.58313 31.1736L19.7447 39.9413C19.8252 39.9801 19.9123 39.9995 19.9995 39.9995C20.0866 39.9995 20.1737 39.9801 20.2542 39.9413L38.4158 31.1736C38.6183 31.0759 38.747 30.8708 38.747 30.646V9.35314C38.747 9.12814 38.6182 8.92322 38.4158 8.82541ZM19.9995 1.23611L36.8133 9.35307L31.9393 11.706C31.9084 11.6825 31.8759 11.6608 31.8401 11.6435L15.1405 3.58182L19.9995 1.23611ZM13.8172 4.24432L30.6066 12.3495L27.1679 14.0096L10.3855 5.90768L13.8172 4.24432ZM30.9994 13.461V19.5974L27.7874 21.1481V15.0117L30.9994 13.461ZM37.5751 30.2783L20.5854 38.48V18.4885L24.638 16.5321C24.9294 16.3913 25.0516 16.0411 24.9109 15.7496C24.7702 15.4583 24.4199 15.336 24.1284 15.4767L19.9995 17.4701L18.3748 16.6857C18.0833 16.5449 17.733 16.6672 17.5923 16.9586C17.4516 17.25 17.5738 17.6003 17.8652 17.741L19.4135 18.4885V38.48L2.42383 30.2781V10.2866L15.3613 16.5323C15.4434 16.572 15.5302 16.5907 15.6156 16.5907C15.8334 16.5907 16.0427 16.4687 16.1437 16.2594C16.2844 15.968 16.1622 15.6177 15.8708 15.477L3.18563 9.35307L9.00633 6.54307L26.6074 15.0402C26.61 15.0438 26.6129 15.047 26.6155 15.0505V22.0817C26.6155 22.2833 26.7192 22.4707 26.89 22.578C26.9848 22.6375 27.0931 22.6676 27.2016 22.6676C27.2884 22.6676 27.3755 22.6483 27.4563 22.6093L31.8401 20.493C32.0426 20.3953 32.1713 20.1903 32.1713 19.9653V12.8954L37.5751 10.2867V30.2783Z" fill="#688800"/>
<path d="M7.25998 28.006L4.59475 26.7194C4.30318 26.5785 3.95303 26.7009 3.81232 26.9923C3.67162 27.2837 3.79381 27.634 4.08521 27.7747L6.75045 29.0613C6.83256 29.101 6.91936 29.1198 7.00475 29.1198C7.22256 29.1198 7.43178 28.9977 7.5328 28.7884C7.67358 28.497 7.55139 28.1468 7.25998 28.006Z" fill="#688800"/>
<path d="M9.71306 26.4096L4.5986 23.9405C4.30712 23.7998 3.95688 23.922 3.81618 24.2135C3.67556 24.5049 3.79774 24.8552 4.08915 24.9959L9.2036 27.4649C9.28571 27.5046 9.37251 27.5234 9.4579 27.5234C9.67571 27.5234 9.88493 27.4014 9.98595 27.1921C10.1266 26.9005 10.0045 26.5502 9.71306 26.4096Z" fill="#688800"/>
</g>
<defs>
<clipPath id="clip0">
<rect width="40" height="40" fill="white"/>
</clipPath>
</defs>
</svg>
