<svg width="32" height="32" viewBox="0 0 32 32" fill="none" xmlns="http://www.w3.org/2000/svg">
<path d="M27.3137 4.68638C24.2917 1.66425 20.2737 0 16 0C11.7263 0 7.70831 1.66425 4.68631 4.68638C1.66425 7.70831 0 11.7263 0 16C0 20.2737 1.66425 24.2917 4.68631 27.3137C7.70831 30.3358 11.7263 32 16 32C20.2737 32 24.2917 30.3358 27.3137 27.3136C30.3358 24.2917 32 20.2737 32 16C32 11.7263 30.3358 7.70831 27.3137 4.68638ZM16 30.9895C7.73475 30.9895 1.0105 24.2653 1.0105 16C1.0105 7.73475 7.73475 1.0105 16 1.0105C24.2653 1.0105 30.9895 7.73475 30.9895 16C30.9895 24.2653 24.2653 30.9895 16 30.9895Z" fill="#688800"/>
<path d="M25.4518 22.6633L24.9048 19.7876C24.8624 19.5648 24.6845 19.3896 24.4557 19.3452L20.1537 18.5103C19.9667 18.4741 19.7734 18.5308 19.6385 18.6617L17.8721 20.3759C14.895 19.0863 13.2499 17.4865 11.8008 14.4734L13.5618 12.7645C13.6965 12.6336 13.755 12.446 13.7178 12.2645L12.8574 8.08935C12.8116 7.86725 12.6311 7.69464 12.4016 7.65357L9.43848 7.12279C9.36236 7.10898 9.28411 7.1107 9.20863 7.12734C8.43321 7.29829 7.72565 7.67752 7.1625 8.22411C6.1876 9.17031 5.81518 10.5528 6.0858 12.2218C6.20901 12.9817 6.39213 13.7689 6.63009 14.5617C6.7183 14.8553 7.03537 15.0235 7.33729 14.9384C7.63978 14.8529 7.8135 14.5456 7.72543 14.2521C7.50091 13.5042 7.32847 12.7632 7.2128 12.0496C6.99824 10.726 7.25271 9.70226 7.9693 9.00682C8.35353 8.63387 8.82967 8.36779 9.35212 8.23295L11.8147 8.67419L12.5395 12.1911L10.7143 13.9623C10.5472 14.1246 10.5005 14.3699 10.5968 14.5794C12.256 18.1854 14.2024 20.073 17.7784 21.5435C17.9926 21.6314 18.24 21.5846 18.4043 21.4252L20.2294 19.6539L23.8532 20.3573L24.3079 22.7472C24.169 23.2541 23.8947 23.7162 23.5106 24.0892C22.7937 24.7845 21.7387 25.0315 20.3749 24.8231C17.6484 24.4068 13.8663 23.1222 11.4289 20.7661L11.3938 20.732C10.2725 19.6395 9.27308 18.1327 8.5037 16.3743C8.38049 16.0929 8.04571 15.9618 7.75574 16.0812C7.46577 16.2007 7.33053 16.5256 7.45368 16.807C8.27954 18.6942 9.36258 20.3216 10.5878 21.5156L10.623 21.5496C13.2546 24.0935 17.2944 25.4735 20.1976 25.9168C20.5619 25.9724 20.9128 26.0001 21.2492 26.0001C22.5006 26.0001 23.5484 25.6175 24.3169 24.8718C24.8801 24.3252 25.2709 23.6386 25.447 22.8862C25.4643 22.813 25.4659 22.7372 25.4518 22.6633Z" fill="#688800"/>
<path d="M17.5206 10.7236C17.2055 10.7236 16.9502 10.9714 16.9502 11.2772C16.9502 11.583 17.2055 11.8308 17.5206 11.8308C18.8835 11.8308 19.9922 12.9068 19.9922 14.2294C19.9922 14.5311 20.2518 14.783 20.5626 14.783C20.8734 14.783 21.133 14.5311 21.133 14.2294C21.133 12.2964 19.5124 10.7236 17.5206 10.7236Z" fill="#688800"/>
<path d="M17.5207 8.36182C17.297 8.36182 17.0712 8.37383 16.8497 8.39751C16.5366 8.43106 16.3108 8.7046 16.3453 9.00845C16.3799 9.31222 16.6615 9.5306 16.9748 9.49794C17.155 9.47861 17.3385 9.4688 17.5206 9.4688C20.2253 9.4688 22.4258 11.6044 22.4258 14.2293C22.4258 14.406 22.4157 14.5842 22.3958 14.759C22.3614 15.0629 22.5872 15.3365 22.9003 15.37C23.2092 15.4024 23.4956 15.1809 23.5298 14.8805C23.5542 14.6655 23.5666 14.4463 23.5666 14.2293C23.5667 10.994 20.8545 8.36182 17.5207 8.36182Z" fill="#688800"/>
<path d="M17.5206 6C17.304 6 17.0849 6.00808 16.8691 6.02389C16.555 6.04702 16.3196 6.31282 16.3435 6.6177C16.3674 6.92258 16.6399 7.15048 16.9553 7.12777C17.1425 7.11396 17.3327 7.10706 17.5206 7.10706C21.5673 7.10706 24.8595 10.3021 24.8595 14.2293C24.8595 14.785 24.7934 15.3381 24.6632 15.8734C24.5925 16.1633 24.7796 16.4624 25.0765 16.5367C25.3816 16.613 25.7009 16.4253 25.7732 16.128C25.9238 15.5094 26.0002 14.8707 26.0002 14.2293C26.0002 9.69171 22.1962 6 17.5206 6Z" fill="#688800"/>
</svg>
