<svg width="10" height="34" viewBox="0 0 10 34" fill="none" xmlns="http://www.w3.org/2000/svg">
<path d="M9.288 34C9.16 34 9.064 33.984 9 33.952L8.664 33.904H8.568C8.056 33.136 7.416 31.888 6.648 30.16L5.832 28.336L3.432 23.344L2.952 22.288C2.664 21.808 2.472 21.424 2.376 21.136C2.28 20.848 1.928 20.304 1.32 19.504C0.744 18.736 0.456 18.112 0.456 17.632C0.456 17.28 0.824 16.192 1.56 14.368L4.056 8.656C4.92 6.768 5.464 5.472 5.688 4.768C5.688 4.672 5.784 4.368 5.976 3.856C6.232 2.768 6.536 1.92 6.888 1.312C7.08 0.927999 7.288 0.719999 7.512 0.688L8.136 1.168C8.008 2.128 7.624 3.392 6.984 4.96C6.376 6.496 5.672 8.064 4.872 9.664C4.104 11.2 3.448 12.704 2.904 14.176C2.392 15.616 2.136 16.752 2.136 17.584C2.136 17.84 3.224 20.208 5.4 24.688C7.608 29.168 8.984 31.856 9.528 32.752L9.96 33.088C9.896 33.28 9.8 33.488 9.672 33.712C9.544 33.904 9.416 34 9.288 34Z" fill="#4A4A4A"/>
</svg>
