<svg width="24" height="24" viewBox="0 0 24 24" fill="none" xmlns="http://www.w3.org/2000/svg">
<g clip-path="url(#clip0)">
<path d="M20.4862 3.51473C18.2197 1.24819 15.2062 0 12.001 0C8.8144 0 5.76889 1.2615 3.51566 3.51473C1.24916 5.78122 0.000976562 8.79472 0.000976562 12C0.000976562 14.4987 0.761616 16.8937 2.20063 18.9261C3.60781 20.9135 5.5534 22.4099 7.82702 23.2535C7.97974 23.3101 8.15632 23.2639 8.26141 23.1268C8.31349 23.0587 8.33782 22.9733 8.33782 22.8876V16.0421C8.33782 15.8328 8.16813 15.6632 7.95888 15.6632H4.80101V12.8842H7.95888C8.16818 12.8842 8.33782 12.7145 8.33782 12.5053V12C8.33782 8.7028 11.4662 5.81052 15.0325 5.81052H16.6747V8.58945H15.0325C13.9631 8.58945 12.9907 8.89728 12.2944 9.45612C11.524 10.0745 11.1168 10.9542 11.1168 12V12.5052C11.1168 12.7145 11.2864 12.8842 11.4957 12.8842H12.9897C13.199 12.8842 13.3686 12.7145 13.3686 12.5052C13.3686 12.2959 13.1989 12.1263 12.9897 12.1263H11.8746V12C11.8746 10.0421 13.5758 9.34737 15.0325 9.34737H17.0536C17.2629 9.34737 17.4325 9.17769 17.4325 8.96844V5.43158C17.4325 5.22229 17.2628 5.05265 17.0536 5.05265H15.0325C13.1801 5.05265 11.3025 5.78952 9.88118 7.07432C8.39716 8.41583 7.57985 10.1651 7.57985 12V12.1264H4.42198C4.21269 12.1264 4.04305 12.296 4.04305 12.5053V16.0421C4.04305 16.2514 4.21273 16.4211 4.42198 16.4211H7.57985V22.3389C3.4782 20.5816 0.75885 16.4947 0.75885 12C0.75885 5.80105 5.80203 0.757874 12.0009 0.757874C18.1929 0.757874 23.243 5.8079 23.243 12C23.243 18.1989 18.1998 23.242 12.0009 23.242C11.9594 23.242 11.9174 23.2418 11.8746 23.2412V16.421H17.0536C17.2629 16.421 17.4325 16.2513 17.4325 16.0421V12.5052C17.4325 12.2959 17.2628 12.1263 17.0536 12.1263H14.8356C14.6263 12.1263 14.4566 12.296 14.4566 12.5052C14.4566 12.7145 14.6263 12.8842 14.8356 12.8842H16.6746V15.6631H11.4957C11.2864 15.6631 11.1168 15.8328 11.1168 16.042V23.6094C11.1168 23.8121 11.2765 23.9793 11.479 23.988C11.6668 23.996 11.8375 24 12.001 24C15.2063 24 18.2198 22.7518 20.4863 20.4852C22.7395 18.232 24.001 15.1865 24.001 11.9999C24.0009 8.79472 22.7527 5.78122 20.4862 3.51473Z" fill="white"/>
</g>
<defs>
<clipPath id="clip0">
<rect width="24" height="24" fill="white"/>
</clipPath>
</defs>
</svg>
