<svg width="40" height="40" viewBox="0 0 40 40" fill="none" xmlns="http://www.w3.org/2000/svg">
<path d="M38.1616 35.0706H37.495V17.6876C39.0002 16.7191 40 15.0302 40 13.1112C40 13.0092 39.9734 12.909 39.9228 12.8205L35.2734 4.6839C34.9468 4.11257 34.3352 3.75757 33.6771 3.75757H6.32289C5.66484 3.75757 5.0532 4.11249 4.72664 4.6839L0.0771875 12.8205C0.0266406 12.909 0 13.0093 0 13.1112C0 15.0302 0.999844 16.7191 2.505 17.6876V35.0706H1.83844C1.51484 35.0706 1.2525 35.333 1.2525 35.6566C1.2525 35.9801 1.51484 36.2425 1.83844 36.2425H38.1616C38.4852 36.2425 38.7475 35.9801 38.7475 35.6566C38.7475 35.333 38.4852 35.0706 38.1616 35.0706ZM1.21227 13.6971H3.0907C3.4143 13.6971 3.67664 13.4348 3.67664 13.1112C3.67664 12.7876 3.4143 12.5252 3.0907 12.5252H1.59562L5.74414 5.2653C5.86258 5.05812 6.0843 4.92944 6.32289 4.92944H33.6771C33.9157 4.92944 34.1375 5.05812 34.2559 5.2653L38.4043 12.5252H36.9089C36.5852 12.5252 36.323 12.7876 36.323 13.1112C36.323 13.4348 36.5852 13.6971 36.9089 13.6971H38.7877C38.5012 15.774 36.7148 17.3787 34.5605 17.3787C32.4062 17.3787 30.6207 15.7738 30.3341 13.6971H34.4041C34.7278 13.6971 34.9901 13.4348 34.9901 13.1112C34.9901 12.7876 34.7278 12.5252 34.4041 12.5252H5.59617C5.27258 12.5252 5.01023 12.7876 5.01023 13.1112C5.01023 13.4348 5.27258 13.6971 5.59617 13.6971H9.66578C9.37922 15.7738 7.59367 17.3787 5.43945 17.3787C3.28508 17.3787 1.49875 15.774 1.21227 13.6971ZM29.0798 13.6971C28.7933 15.7738 27.0077 17.3787 24.8535 17.3787C22.6992 17.3787 20.9138 15.7738 20.6272 13.6971H29.0798ZM19.3728 13.6971C19.0863 15.7738 17.3007 17.3787 15.1465 17.3787C12.9923 17.3787 11.2067 15.7738 10.9202 13.6971H19.3728ZM33.1917 35.0707H26.8485V33.1112H33.1917V35.0707ZM33.1917 31.9394H26.8485V21.2123H33.1917V31.9394ZM36.3231 35.0707H34.3637V20.6263C34.3637 20.3027 34.1014 20.0404 33.7777 20.0404H26.2627C25.939 20.0404 25.6767 20.3027 25.6767 20.6263V35.0706H3.67687V18.2559C4.23008 18.4459 4.82258 18.5506 5.43945 18.5506C7.55625 18.5506 9.39445 17.3353 10.293 15.5657C11.1915 17.3352 13.0297 18.5506 15.1465 18.5506C17.2633 18.5506 19.1015 17.3353 20 15.5657C20.8985 17.3352 22.7367 18.5506 24.8535 18.5506C26.9703 18.5506 28.8085 17.3353 29.707 15.5657C30.6055 17.3352 32.4437 18.5506 34.5605 18.5506C35.1774 18.5506 35.7699 18.4459 36.3231 18.2559V35.0707Z" fill="#688800"/>
<path d="M23.1317 20.04H6.22266C5.89906 20.04 5.63672 20.3024 5.63672 20.626V32.525C5.63672 32.8486 5.89906 33.1109 6.22266 33.1109H23.1317C23.4554 33.1109 23.7177 32.8486 23.7177 32.525V20.626C23.7177 20.3023 23.4554 20.04 23.1317 20.04ZM22.5458 31.939H6.80859V21.2119H22.5458V31.939Z" fill="#688800"/>
</svg>
