<svg width="24" height="24" viewBox="0 0 24 24" fill="none" xmlns="http://www.w3.org/2000/svg">
<path d="M20.4853 3.51473C18.2188 1.24819 15.2053 0 12 0C8.79473 0 5.78123 1.24819 3.51473 3.51473C1.24819 5.78123 0 8.79473 0 12C0 15.2053 1.24819 18.2188 3.51473 20.4853C5.78123 22.7518 8.79473 24 12 24C15.2053 24 18.2188 22.7518 20.4853 20.4853C22.7518 18.2187 24 15.2053 24 12C24 8.79473 22.7518 5.78123 20.4853 3.51473ZM12 23.2421C5.80106 23.2421 0.757875 18.1989 0.757875 12C0.757875 5.80106 5.80106 0.757875 12 0.757875C18.1989 0.757875 23.2421 5.80106 23.2421 12C23.2421 18.1989 18.1989 23.2421 12 23.2421Z" fill="white"/>
<path d="M18.7967 4.62359C18.6804 4.53594 18.524 4.52281 18.3947 4.58975L3.74201 12.1687C3.61535 12.2342 3.53618 12.3653 3.53712 12.5079C3.53806 12.6505 3.61901 12.7805 3.7466 12.8442L7.57929 14.7605V18.5577C7.57929 18.657 7.61309 18.7554 7.68148 18.8275C7.75713 18.9073 7.85768 18.9474 7.95827 18.9474C8.02165 18.9474 8.08502 18.9315 8.14235 18.8997L12.5272 16.4636L15.8833 17.9019C15.9547 17.9325 16.0338 17.9452 16.1102 17.9309C16.2674 17.9015 16.3843 17.7811 16.4142 17.6322L17.2633 13.3865C17.3102 13.1519 17.1308 12.9332 16.8917 12.9332C16.711 12.9331 16.5555 13.0606 16.5201 13.2377L15.7625 17.0255L12.6549 15.6937C12.5472 15.6476 12.4241 15.6539 12.3216 15.7107L8.33721 17.9243V14.5263C8.33721 14.3827 8.25612 14.2516 8.12773 14.1873L4.75202 12.4995L18.0425 5.62508L16.8891 11.3918C16.8423 11.6263 17.0216 11.8451 17.2608 11.8451C17.4414 11.8451 17.5969 11.7175 17.6324 11.5404L18.9403 5.00056C18.9689 4.85778 18.9131 4.7112 18.7967 4.62359Z" fill="white"/>
<path d="M16.3394 7.72293C16.2203 7.57218 16.0071 7.53431 15.8435 7.63514L9.27505 11.6773C9.16298 11.7462 9.09473 11.8684 9.09473 12V16.0421C9.09468 16.2179 9.21552 16.3705 9.38652 16.4109C9.41563 16.4178 9.44483 16.4212 9.47371 16.4212C9.61466 16.4212 9.74732 16.3421 9.81252 16.2116L11.3008 13.2351L16.31 8.22586C16.4459 8.08992 16.4585 7.87378 16.3394 7.72293ZM10.7214 12.7425C10.6927 12.7713 10.6687 12.8046 10.6505 12.841L9.8526 14.4368V12.2117L13.4918 9.97218L10.7214 12.7425Z" fill="white"/>
</svg>
