<svg width="24" height="24" viewBox="0 0 24 24" fill="none" xmlns="http://www.w3.org/2000/svg">
<path d="M20.4853 3.51478C18.2188 1.24819 15.2053 0 12 0C8.79473 0 5.78123 1.24819 3.51473 3.51478C1.24819 5.78123 0 8.79473 0 12C0 15.2053 1.24819 18.2188 3.51473 20.4853C5.78123 22.7518 8.79473 24 12 24C15.2053 24 18.2188 22.7518 20.4853 20.4852C22.7518 18.2188 24 15.2053 24 12C24 8.79473 22.7518 5.78123 20.4853 3.51478ZM12 23.2421C5.80106 23.2421 0.757875 18.1989 0.757875 12C0.757875 5.80106 5.80106 0.757875 12 0.757875C18.1989 0.757875 23.2421 5.80106 23.2421 12C23.2421 18.1989 18.1989 23.2421 12 23.2421Z" fill="white"/>
<path d="M19.0889 16.9975L18.6786 14.8407C18.6468 14.6737 18.5134 14.5423 18.3418 14.509L15.1153 13.8828C14.975 13.8556 14.8301 13.8981 14.7289 13.9963L13.4041 15.282C11.1712 14.3148 9.93741 13.1149 8.85057 10.8551L10.1713 9.57341C10.2724 9.47529 10.3163 9.33455 10.2883 9.19842L9.64305 6.06707C9.60869 5.90049 9.47333 5.77104 9.30121 5.74024L7.07886 5.34215C7.02177 5.33179 6.96308 5.33309 6.90647 5.34557C6.3249 5.47378 5.79423 5.7582 5.37188 6.16815C4.6407 6.87779 4.36139 7.91464 4.56435 9.16642C4.65676 9.73631 4.79409 10.3268 4.97257 10.9213C5.03873 11.1416 5.27653 11.2677 5.50297 11.2039C5.72984 11.1397 5.86013 10.9093 5.79407 10.6891C5.62569 10.1282 5.49635 9.57248 5.4096 9.03728C5.24868 8.04455 5.43953 7.27676 5.97698 6.75518C6.26515 6.47546 6.62225 6.2759 7.01409 6.17477L8.86103 6.5057L9.40461 9.14338L8.03573 10.4718C7.9104 10.5935 7.87535 10.7775 7.94759 10.9346C9.19199 13.6391 10.6518 15.0548 13.3338 16.1577C13.4944 16.2236 13.68 16.1885 13.8032 16.069L15.172 14.7405L17.8899 15.268L18.2309 17.0604C18.1267 17.4407 17.921 17.7872 17.6329 18.0669C17.0953 18.5884 16.304 18.7737 15.2812 18.6174C13.2363 18.3052 10.3997 17.3417 8.57168 15.5746L8.54533 15.5491C7.7044 14.7297 6.95481 13.5996 6.37778 12.2808C6.28537 12.0697 6.03428 11.9714 5.8168 12.0609C5.59933 12.1506 5.4979 12.3943 5.59026 12.6053C6.20966 14.0207 7.02193 15.2413 7.94081 16.1367L7.96728 16.1623C9.94099 18.0702 12.9708 19.1052 15.1482 19.4377C15.4215 19.4794 15.6846 19.5001 15.9369 19.5001C16.8755 19.5001 17.6613 19.2132 18.2377 18.6539C18.6601 18.244 18.9532 17.729 19.0852 17.1647C19.0982 17.1098 19.0994 17.0529 19.0889 16.9975Z" fill="white"/>
<path d="M13.1407 8.04272C12.9044 8.04272 12.7129 8.22856 12.7129 8.4579C12.7129 8.68723 12.9044 8.87307 13.1407 8.87307C14.1629 8.87307 14.9944 9.68006 14.9944 10.6721C14.9944 10.8983 15.1891 11.0872 15.4222 11.0872C15.6553 11.0872 15.85 10.8983 15.85 10.6721C15.85 9.22228 14.6346 8.04272 13.1407 8.04272Z" fill="white"/>
<path d="M13.14 6.27124C12.9723 6.27124 12.8029 6.28025 12.6368 6.29801C12.4019 6.32318 12.2326 6.52833 12.2585 6.75621C12.2844 6.98404 12.4956 7.14783 12.7306 7.12333C12.8658 7.10883 13.0034 7.10148 13.1399 7.10148C15.1685 7.10148 16.8189 8.70314 16.8189 10.6718C16.8189 10.8044 16.8113 10.938 16.7964 11.0691C16.7705 11.2971 16.9399 11.5022 17.1747 11.5274C17.4064 11.5517 17.6212 11.3856 17.6468 11.1603C17.6651 10.999 17.6744 10.8346 17.6744 10.6718C17.6745 8.24535 15.6404 6.27124 13.14 6.27124Z" fill="white"/>
<path d="M13.1399 4.5C12.9775 4.5 12.8132 4.50606 12.6513 4.51792C12.4157 4.53526 12.2392 4.73462 12.2571 4.96328C12.275 5.19194 12.4794 5.36286 12.716 5.34583C12.8564 5.33547 12.9991 5.33029 13.14 5.33029C16.175 5.33029 18.6441 7.72657 18.6441 10.672C18.6441 11.0888 18.5946 11.5036 18.4969 11.905C18.4439 12.1225 18.5842 12.3468 18.8069 12.4025C19.0357 12.4598 19.2752 12.3189 19.3294 12.096C19.4424 11.632 19.4996 11.153 19.4996 10.672C19.4997 7.26878 16.6467 4.5 13.1399 4.5Z" fill="white"/>
</svg>
