<svg width="10" height="34" fill="none" xmlns="http://www.w3.org/2000/svg"><path d="M.712 34A.669.669 0 001 33.952l.336-.048h.096c.512-.768 1.152-2.016 1.92-3.744l.816-1.824 2.4-4.992.48-1.056c.288-.48.48-.864.576-1.152.096-.288.448-.832 1.056-1.632.576-.768.864-1.392.864-1.872 0-.352-.368-1.44-1.104-3.264L5.944 8.656C5.08 6.768 4.536 5.472 4.312 4.768c0-.096-.096-.4-.288-.912-.256-1.088-.56-1.936-.912-2.544-.192-.384-.4-.592-.624-.624l-.624.48c.128.96.512 2.224 1.152 3.792a59.509 59.509 0 002.112 4.704 44.95 44.95 0 011.968 4.512c.512 1.44.768 2.576.768 3.408 0 .256-1.088 2.624-3.264 7.104-2.208 4.48-3.584 7.168-4.128 8.064l-.432.336c.064.192.16.4.288.624.128.192.256.288.384.288z" fill="#4A4A4A"/></svg>