<svg width="40" height="40" fill="none" xmlns="http://www.w3.org/2000/svg"><g clip-path="url(#clip0)" fill="#688800"><path d="M37.404 1.283h-2.567a.587.587 0 100 1.174h2.567c.15 0 .271.122.271.271V18.49c0 .15-.122.271-.271.271h-24.02v-1.174h15.854a.587.587 0 100-1.174H13.384v-2.49a2.858 2.858 0 00-2.854-2.854 2.858 2.858 0 00-2.855 2.854v2.49H6.317a2.315 2.315 0 00-1.643-1.643v-4.171a.587.587 0 10-1.174 0v4.682c0 .324.262.587.587.587.624 0 1.132.508 1.132 1.132 0 .324.262.587.587.587h1.87v1.174h-5.08a.271.271 0 01-.27-.271V2.729c0-.15.121-.272.27-.272h8.11v1.174h-4.9a.587.587 0 00-.587.587c0 .624-.508 1.132-1.132 1.132a.587.587 0 00-.587.587v2.159a.587.587 0 101.174 0V6.449a2.316 2.316 0 001.643-1.644h4.39v.226a2.557 2.557 0 002.554 2.555c.654 0 1.25-.247 1.702-.652a2.556 2.556 0 002.233 1.315c.958 0 1.795-.532 2.232-1.315a2.544 2.544 0 001.702.652c1 0 1.868-.579 2.287-1.419a2.54 2.54 0 001.647.605c1.206 0 2.22-.84 2.485-1.967h6.135c.21.8.842 1.433 1.643 1.644v8.32c-.8.21-1.432.842-1.643 1.643H31.74a.587.587 0 100 1.174h2.455a.587.587 0 00.587-.587c0-.624.508-1.132 1.132-1.132a.587.587 0 00.587-.587V5.937a.587.587 0 00-.587-.587 1.133 1.133 0 01-1.132-1.132.587.587 0 00-.587-.587h-6.576V2.457h4.716a.587.587 0 100-1.174H27.51A1.924 1.924 0 0025.698 0H24.43c-.517 0-.987.206-1.333.54A1.913 1.913 0 0021.764 0h-1.268c-.517 0-.988.206-1.333.54A1.913 1.913 0 0017.829 0h-1.267c-.518 0-.988.206-1.334.54A1.914 1.914 0 0013.895 0h-1.268c-.835 0-1.547.536-1.81 1.283h-8.22c-.797 0-1.446.648-1.446 1.445V18.49c0 .797.649 1.445 1.446 1.445h5.078v4.354c0 1.253.488 2.43 1.373 3.316l2.514 2.513v9.296a.587.587 0 001.174 0v-9.539a.587.587 0 00-.172-.415L9.88 26.773a3.491 3.491 0 01-1.03-2.485V13.922a1.681 1.681 0 013.36 0v5.425c0 .325.264.587.588.587a4.791 4.791 0 014.786 4.786v.377a.587.587 0 001.174 0v-.377c0-1.959-.95-3.699-2.414-4.786h12.308v.303a4.93 4.93 0 01-.928 2.889l-1.69 2.357c-.072.1-.11.22-.11.342v13.588a.587.587 0 101.174 0V26.014l1.58-2.204a6.096 6.096 0 001.148-3.572v-.304h7.579c.797 0 1.445-.648 1.445-1.445V2.729c0-.798-.648-1.446-1.445-1.446zM24.43 1.174h1.268c.412 0 .746.335.746.746v2.298c0 .76-.619 1.38-1.38 1.38-.76 0-1.38-.62-1.38-1.38V1.92c0-.411.335-.746.746-.746zm-3.934 0h1.268c.411 0 .746.335.746.746v3.111c0 .761-.62 1.38-1.38 1.38-.761 0-1.38-.619-1.38-1.38v-3.11c0-.412.334-.747.746-.747zm-3.934 0h1.267c.412 0 .747.335.747.746v3.775c0 .76-.62 1.38-1.38 1.38-.762 0-1.38-.62-1.38-1.38V1.92c0-.411.334-.746.746-.746zm-4.681.746c0-.411.335-.746.746-.746h1.268c.412 0 .746.335.746.746v3.111c0 .761-.619 1.38-1.38 1.38-.761 0-1.38-.619-1.38-1.38v-3.11z"/><path d="M15.572 8.957a.588.588 0 00-.67.49 5.169 5.169 0 005.103 5.954 5.169 5.169 0 004.961-6.592.587.587 0 10-1.128.324 3.994 3.994 0 01-3.833 5.094 3.993 3.993 0 01-3.942-4.6.587.587 0 00-.491-.67z"/></g><defs><clipPath id="clip0"><path fill="#fff" d="M0 0h40v40H0z"/></clipPath></defs></svg>