<svg width="40" height="40" fill="none" xmlns="http://www.w3.org/2000/svg"><g clip-path="url(#clip0)" fill="#688800"><path d="M26.818 8.684h-1.13c.2-.347.314-.748.314-1.177V3.913A2.375 2.375 0 0023.63 1.54H2.373A2.376 2.376 0 000 3.913v3.595A2.375 2.375 0 002.373 9.88h1.13c-.2.347-.315.748-.315 1.177v3.594c0 .429.115.83.314 1.177h-1.13A2.375 2.375 0 000 18.202v3.595c0 1.034.666 1.916 1.591 2.24-.25.375-.395.825-.395 1.31v3.594c0 .484.146.934.395 1.31A2.376 2.376 0 000 32.49v3.594a2.375 2.375 0 002.373 2.373H20.6a.598.598 0 100-1.196H2.373c-.65 0-1.177-.528-1.177-1.177V32.49c0-.65.528-1.177 1.177-1.177h11.559a.598.598 0 100-1.196H3.568a1.178 1.178 0 01-1.177-1.177v-3.595c0-.649.528-1.177 1.177-1.177h9.275a.598.598 0 100-1.195H2.373c-.65 0-1.177-.529-1.177-1.178v-3.594c0-.65.528-1.177 1.177-1.177H16.23a.598.598 0 100-1.196H5.561c-.65 0-1.177-.528-1.177-1.177v-3.595c0-.649.528-1.177 1.177-1.177h21.257c.65 0 1.177.528 1.177 1.177v.446a.598.598 0 001.196 0v-.446a2.375 2.375 0 00-2.373-2.373zm-2.011-1.176c0 .649-.528 1.177-1.177 1.177H2.373c-.65 0-1.177-.528-1.177-1.177V3.913c0-.649.528-1.177 1.177-1.177H23.63c.649 0 1.177.528 1.177 1.177v3.595z"/><path d="M34.089 14.558a.598.598 0 00-.653 1.001 11.778 11.778 0 015.369 9.899c0 6.51-5.296 11.805-11.806 11.805-6.51 0-11.805-5.296-11.805-11.805 0-6.51 5.296-11.806 11.805-11.806 1.71 0 3.358.357 4.9 1.061a.598.598 0 10.496-1.087A12.898 12.898 0 0027 12.456c-7.168 0-13.001 5.833-13.001 13.002 0 7.169 5.833 13 13.001 13 7.17 0 13.002-5.831 13.002-13a12.97 12.97 0 00-5.912-10.9z"/><path d="M33.623 18.833a9.307 9.307 0 00-6.624-2.744 9.307 9.307 0 00-6.625 2.744 9.4 9.4 0 00-2.42 9.076.598.598 0 101.155-.312 8.201 8.201 0 012.11-7.918A8.12 8.12 0 0127 17.285a8.12 8.12 0 015.779 2.394c3.186 3.186 3.186 8.371 0 11.558-3.187 3.186-8.372 3.186-11.558 0a8.182 8.182 0 01-1.433-1.929.597.597 0 10-1.054.564 9.377 9.377 0 0014.89 2.21c3.653-3.652 3.653-9.596 0-13.249z"/><path d="M27.597 24.908v-3.292c.871.203 1.51.838 1.51 1.588a.598.598 0 101.195 0c0-1.396-1.168-2.56-2.705-2.804v-.352a.598.598 0 10-1.196 0v.352c-1.536.244-2.705 1.408-2.705 2.804s1.169 2.56 2.705 2.804V29.3c-.871-.203-1.51-.838-1.51-1.588a.598.598 0 10-1.195 0c0 1.396 1.169 2.56 2.705 2.804v.352a.598.598 0 001.196 0v-.352c1.537-.243 2.705-1.408 2.705-2.804s-1.168-2.56-2.705-2.804zm-1.196-.116c-.871-.203-1.51-.838-1.51-1.588 0-.75.639-1.385 1.51-1.588v3.176zm1.196 4.508v-3.176c.871.203 1.51.838 1.51 1.588 0 .75-.639 1.385-1.51 1.588z"/></g><defs><clipPath id="clip0"><path fill="#fff" d="M0 0h40v40H0z"/></clipPath></defs></svg>