<svg width="40" height="40" fill="none" xmlns="http://www.w3.org/2000/svg"><g clip-path="url(#clip0)" fill="#688800"><path d="M38.166 14.203H34.23l-1.99-7.801a1.837 1.837 0 00-2.23-1.324l-4.535 1.156a.572.572 0 00.282 1.108l4.535-1.156a.69.69 0 01.84.499l.221.864L1.385 15.19l-.22-.864a.687.687 0 01.5-.84l20.613-5.257a.572.572 0 10-.283-1.107L1.381 12.378a1.836 1.836 0 00-1.324 2.23l4.227 16.578a1.838 1.838 0 002.231 1.325l.27-.07v.704c0 1.011.823 1.834 1.835 1.834h29.546A1.836 1.836 0 0040 33.145V16.037a1.836 1.836 0 00-1.834-1.834zM6.786 31.262l-.553.14a.692.692 0 01-.841-.498L2.805 20.757l3.98-1.016v11.52zm0-15.225v2.525l-4.264 1.087-.854-3.35 5.522-1.41a1.825 1.825 0 00-.404 1.148zm26.265-1.834h-4.544l4.267-1.088.277 1.088zm-1.414-5.547l.854 3.351-8.61 2.196H9.886l21.75-5.547zm6.529 25.18H8.62a.692.692 0 01-.691-.691V16.037c0-.381.31-.691.691-.691h29.546c.38 0 .69.31.69.691v17.108c0 .381-.31.691-.69.691z"/><path d="M22.76 28.273H10.308a.571.571 0 100 1.143H22.76a.572.572 0 100-1.143zm9.526-10.051c-.821 0-1.58.265-2.2.713a3.742 3.742 0 00-2.202-.713 3.767 3.767 0 00-3.763 3.763 3.767 3.767 0 003.763 3.763c.799 0 1.564-.25 2.202-.713.62.448 1.38.713 2.2.713a3.767 3.767 0 003.763-3.763 3.767 3.767 0 00-3.763-3.763zm-3.758 3.942l.002.044.011.143.003.033c.07.668.314 1.296.712 1.833a2.623 2.623 0 01-3.992-2.232 2.623 2.623 0 013.992-2.231 3.71 3.71 0 00-.712 1.832l-.003.033a4.002 4.002 0 00-.01.144 3.924 3.924 0 00-.003.401zm3.758 2.44a2.61 2.61 0 01-1.837-.754l-.03-.029a2.74 2.74 0 01-.064-.067l-.017-.02a2.607 2.607 0 01-.672-1.75 2.603 2.603 0 01.672-1.748l.017-.02a2.436 2.436 0 01.094-.096 2.611 2.611 0 011.837-.755 2.623 2.623 0 012.62 2.62 2.623 2.623 0 01-2.62 2.62zm-17.906-6.01h-2.506a2.14 2.14 0 00-2.138 2.138v2.506a2.14 2.14 0 002.138 2.138h2.507a2.14 2.14 0 002.138-2.138v-2.506a2.14 2.14 0 00-2.138-2.138zm.995 3.698h-1.219a.572.572 0 100 1.143h1.2a.996.996 0 01-.975.798h-2.507a.996.996 0 01-.975-.798h1.2a.571.571 0 100-1.143h-1.22v-.495h1.22a.572.572 0 000-1.143h-1.216a.995.995 0 01.991-.917h2.507c.522 0 .95.405.99.917h-1.215a.571.571 0 100 1.143h1.22v.495zm20.805 8.496h-19.9a.571.571 0 100 1.142h19.9a.571.571 0 100-1.142zm-23.543 0h-2.33a.571.571 0 100 1.142h2.33a.571.571 0 100-1.142z"/></g><defs><clipPath id="clip0"><path fill="#fff" d="M0 0h40v40H0z"/></clipPath></defs></svg>