<svg width="32" height="32" fill="none" xmlns="http://www.w3.org/2000/svg"><g clip-path="url(#clip0)" fill="#688800"><path d="M20.758.72A16.003 16.003 0 0016 0 15.896 15.896 0 004.686 4.686 15.896 15.896 0 000 16c0 3.206.945 6.3 2.733 8.946a16.002 16.002 0 007.039 5.796.47.47 0 10.366-.865A15.064 15.064 0 013.51 24.42 14.985 14.985 0 01.94 16c0-4.023 1.567-7.805 4.412-10.65A14.962 14.962 0 0116 .94c1.528 0 3.034.227 4.479.676a.47.47 0 00.279-.897zm8.683 6.596a16.033 16.033 0 00-6.633-5.8.47.47 0 00-.4.85c2.55 1.2 4.71 3.089 6.244 5.46A15.004 15.004 0 0131.063 16c0 4.023-1.567 7.805-4.412 10.65A14.962 14.962 0 0116 31.06c-1.367 0-2.721-.182-4.026-.543a.47.47 0 00-.25.905A16.04 16.04 0 0016 32c4.273 0 8.291-1.664 11.313-4.686A15.895 15.895 0 0032.001 16a15.94 15.94 0 00-2.56-8.684z"/><path d="M20.591 19.928L16.663 16l3.928-3.928a.47.47 0 00-.664-.664l-3.928 3.928-3.928-3.928a.47.47 0 00-.664.664L15.335 16l-3.928 3.928a.47.47 0 00.664.664L16 16.664l3.928 3.928a.468.468 0 00.664 0 .47.47 0 000-.664z"/></g><defs><clipPath id="clip0"><path fill="#fff" d="M0 0h32v32H0z"/></clipPath></defs></svg>