<svg width="24" height="24" fill="none" xmlns="http://www.w3.org/2000/svg"><g clip-path="url(#clip0)" fill="#949494"><path d="M15.568.54A12.002 12.002 0 0012 0a11.922 11.922 0 00-8.485 3.515A11.922 11.922 0 000 12c0 2.405.709 4.725 2.05 6.71a12.001 12.001 0 005.279 4.347.352.352 0 10.274-.649 11.298 11.298 0 01-4.97-4.093A11.239 11.239 0 01.704 12c0-3.017 1.175-5.854 3.309-7.987A11.222 11.222 0 0112 .705c1.146 0 2.276.17 3.36.507a.352.352 0 00.208-.672zm6.512 4.947a12.025 12.025 0 00-4.975-4.35.352.352 0 00-.3.638 11.32 11.32 0 014.683 4.095A11.253 11.253 0 0123.295 12c0 3.017-1.175 5.854-3.308 7.987A11.221 11.221 0 0112 23.296a11.31 11.31 0 01-3.02-.409.352.352 0 00-.188.68C9.832 23.853 10.91 24 12 24a11.92 11.92 0 008.485-3.515A11.922 11.922 0 0024 12c0-2.321-.664-4.573-1.92-6.513z"/><path d="M15.444 14.946L12.498 12l2.946-2.946a.352.352 0 10-.498-.498L12 11.502 9.054 8.556a.352.352 0 00-.498.498L11.502 12l-2.946 2.946a.352.352 0 10.499.498L12 12.498l2.946 2.946a.351.351 0 00.498 0 .352.352 0 000-.498z"/></g><defs><clipPath id="clip0"><path fill="#fff" d="M0 0h24v24H0z"/></clipPath></defs></svg>