<svg width="24" height="24" fill="none" xmlns="http://www.w3.org/2000/svg"><g clip-path="url(#clip0)"><path d="M20.486 3.515A11.921 11.921 0 0012.001 0a11.986 11.986 0 00-8.485 3.515A11.921 11.921 0 000 12c0 2.499.76 4.894 2.2 6.926a11.973 11.973 0 005.626 4.328.38.38 0 00.51-.366v-6.846a.378.378 0 00-.378-.379H4.8v-2.779h3.158c.21 0 .379-.17.379-.379V12c0-3.297 3.128-6.19 6.695-6.19h1.642v2.78h-1.643c-1.069 0-2.041.307-2.738.866-.77.619-1.177 1.498-1.177 2.544v.505c0 .21.17.38.379.38h1.494a.379.379 0 000-.759h-1.115V12c0-1.958 1.7-2.653 3.158-2.653h2.02c.21 0 .38-.17.38-.379V5.432a.38.38 0 00-.38-.38h-2.02c-1.853 0-3.73.738-5.152 2.022-1.483 1.342-2.3 3.091-2.3 4.926v.126H4.422c-.21 0-.379.17-.379.38v3.536c0 .21.17.38.379.38H7.58v5.917C3.478 20.582.759 16.495.759 12 .759 5.801 5.802.758 12 .758c6.192 0 11.242 5.05 11.242 11.242 0 6.199-5.043 11.242-11.242 11.242h-.126V16.42h5.179a.38.38 0 00.379-.379v-3.537c0-.21-.17-.379-.38-.379h-2.217a.379.379 0 100 .758h1.839v2.78h-5.18a.378.378 0 00-.378.378v7.567c0 .203.16.37.362.379a11.921 11.921 0 009.007-3.503A11.986 11.986 0 0024.001 12c0-3.205-1.248-6.219-3.515-8.485z" fill="#fff"/></g><defs><clipPath id="clip0"><path fill="#fff" d="M0 0h24v24H0z"/></clipPath></defs></svg>