<svg width="32" height="32" fill="none" xmlns="http://www.w3.org/2000/svg"><g clip-path="url(#clip0)"><path d="M27.315 4.686A15.895 15.895 0 0016 0 15.98 15.98 0 004.687 4.686 15.895 15.895 0 00.001 16c0 3.332 1.014 6.525 2.933 9.235a15.965 15.965 0 007.502 5.77.506.506 0 00.68-.488V21.39a.505.505 0 00-.505-.506h-4.21V17.18h4.21c.28 0 .506-.226.506-.505V16c0-4.396 4.17-8.253 8.926-8.253h2.19v3.706h-2.19c-1.426 0-2.722.41-3.65 1.155-1.028.825-1.571 1.997-1.571 3.392v.674c0 .279.226.505.505.505h1.992a.505.505 0 000-1.01h-1.486V16c0-2.61 2.268-3.537 4.21-3.537h2.695a.505.505 0 00.505-.505V7.242a.505.505 0 00-.505-.505h-2.695c-2.47 0-4.973.982-6.868 2.695-1.98 1.79-3.069 4.121-3.069 6.568v.169h-4.21a.505.505 0 00-.506.505v4.716c0 .279.227.505.506.505h4.21v7.89C4.637 27.442 1.011 21.993 1.011 16c0-8.265 6.725-14.99 14.99-14.99 8.256 0 14.99 6.734 14.99 14.99 0 8.265-6.725 14.99-14.99 14.99-.055 0-.112 0-.169-.002v-9.093h6.906a.505.505 0 00.505-.505v-4.716a.505.505 0 00-.505-.506H19.78a.505.505 0 000 1.01h2.453v3.706h-6.906a.505.505 0 00-.505.505v10.09c0 .27.213.493.483.505a15.895 15.895 0 0012.01-4.67A15.982 15.982 0 0032 16c0-4.274-1.664-8.292-4.686-11.314z" fill="#688800"/></g><defs><clipPath id="clip0"><path fill="#fff" d="M0 0h32v32H0z"/></clipPath></defs></svg>