<svg width="24" height="24" fill="none" xmlns="http://www.w3.org/2000/svg"><path d="M20.485 3.515A11.921 11.921 0 0012 0a11.921 11.921 0 00-8.485 3.515A11.921 11.921 0 000 12c0 3.205 1.248 6.219 3.515 8.485A11.921 11.921 0 0012 24c3.205 0 6.219-1.248 8.485-3.515A11.922 11.922 0 0024 12c0-3.205-1.248-6.219-3.515-8.485zM12 23.242C5.801 23.242.758 18.2.758 12 .758 5.801 5.8.758 12 .758 18.199.758 23.242 5.8 23.242 12c0 6.199-5.043 11.242-11.242 11.242z" fill="#fff"/><path d="M16.305 4.548h-8.61a3.15 3.15 0 00-3.148 3.147v8.61a3.15 3.15 0 003.147 3.148h8.61a3.15 3.15 0 003.148-3.148v-8.61a3.15 3.15 0 00-3.147-3.147zm2.39 11.758a2.392 2.392 0 01-2.39 2.389h-8.61a2.392 2.392 0 01-2.39-2.39v-8.61a2.392 2.392 0 012.39-2.39h8.61a2.392 2.392 0 012.39 2.39v8.61z" fill="#fff"/><path d="M15.91 11.776a3.926 3.926 0 00-3.73-3.687 3.92 3.92 0 00-4.092 4.094 3.926 3.926 0 003.69 3.727 3.893 3.893 0 002.288-.586.375.375 0 00.062-.59.377.377 0 00-.467-.05 3.138 3.138 0 01-1.695.474 3.171 3.171 0 01-3.123-3.248 3.161 3.161 0 013.36-3.061 3.166 3.166 0 012.944 2.886 3.141 3.141 0 01-.357 1.742.377.377 0 00.064.444l.006.006a.374.374 0 00.594-.085c.327-.61.497-1.317.455-2.066zm.133-3.313a1.01 1.01 0 100-2.02 1.01 1.01 0 000 2.02z" fill="#fff"/></svg>