<svg width="32" height="32" fill="none" xmlns="http://www.w3.org/2000/svg"><path d="M27.314 4.686A15.895 15.895 0 0016 0 15.895 15.895 0 004.686 4.686 15.895 15.895 0 000 16c0 4.274 1.664 8.292 4.686 11.314A15.895 15.895 0 0016 32c4.274 0 8.292-1.664 11.314-4.686A15.896 15.896 0 0032 16c0-4.274-1.664-8.292-4.686-11.314zM16 30.99C7.735 30.99 1.01 24.265 1.01 16S7.736 1.01 16 1.01 30.99 7.736 30.99 16 24.264 30.99 16 30.99z" fill="#688800"/><path d="M21.74 6.063H10.259a4.201 4.201 0 00-4.197 4.197v11.48a4.201 4.201 0 004.197 4.197h11.48a4.201 4.201 0 004.197-4.196V10.26a4.201 4.201 0 00-4.196-4.197zm3.186 15.678a3.19 3.19 0 01-3.186 3.186H10.259a3.19 3.19 0 01-3.186-3.186V10.26a3.19 3.19 0 013.186-3.186h11.48a3.19 3.19 0 013.187 3.186v11.48z" fill="#688800"/><path d="M21.213 15.701a5.235 5.235 0 00-4.972-4.916 5.226 5.226 0 00-5.456 5.459 5.235 5.235 0 004.92 4.97 5.191 5.191 0 003.05-.782.5.5 0 00.09-.778l-.007-.008a.503.503 0 00-.623-.067c-.655.408-1.43.64-2.26.632-2.34-.025-4.23-1.99-4.163-4.33a4.215 4.215 0 014.478-4.083 4.221 4.221 0 013.926 3.848 4.19 4.19 0 01-.475 2.323.503.503 0 00.084.593l.008.008a.5.5 0 00.793-.114 5.19 5.19 0 00.607-2.755zm.177-4.416a1.347 1.347 0 100-2.695 1.347 1.347 0 000 2.695z" fill="#688800"/></svg>