<svg width="76" height="155" fill="none" xmlns="http://www.w3.org/2000/svg"><path d="M25.273 98.426V78.732h1.398v19.694h-1.398zm7.346-61.473l1.287.572-.168.386-.185.377-.202.366-.217.356-.229.347-.241.34-.253.33-.262.325-.27.317-.274.312-.282.306-.287.3-.288.299-.29.292-.292.29-.29.286-.289.284-.285.282-.282.28-.276.28-.27.279-.261.277-.253.277-.243.276-.23.276-.22.276-.205.276-.19.276-.175.276-.158.276-.141.277-.123.28-1.284-.58.156-.354.176-.345.192-.337.208-.328.222-.321.233-.315.245-.31.255-.304.263-.3.27-.296.277-.292.28-.29.286-.288.287-.286.29-.285.288-.285.288-.284.285-.285.283-.285.277-.286.273-.287.265-.288.258-.29.248-.293.237-.294.226-.297.213-.3.2-.303.186-.304.171-.31.155-.311.137-.318-.002.002zm16.827 12.848H25.893v-1.465h23.553l.7.732-.7.732v.001zm0-1.465h.7v.732l-.7-.732zm-.699 24.507V49.069h1.398v23.774l-.699.732-.699-.732zm1.398 0v.732h-.699l.7-.732zm-24.252-.732h23.553v1.465H25.893l-.699-.732.7-.732v-.001zm0 1.465h-.699v-.732l.7.732zm.7-24.507v23.774h-1.399V49.069l.7-.732.698.732zm-1.399 0v-.732h.7l-.7.732zM22.36 109.16h30.03v1.466H22.36l-.698-.732.698-.733v-.001zm0 1.466h-.698v-.732l.698.732zm-.698-63.718h1.398v62.991h-1.398V46.908zM32.517 31.42v1.465l.7-.732-.037.556-.1.546-.158.535-.21.522-.254.51-.295.501-.33.493-.361.487-.389.481-.411.477-.432.473-.447.47-.46.467-.47.465-.475.463-.477.462-.474.458-.469.457-.46.456-.446.453-.43.45-.408.448-.382.444-.354.44-.324.436-.286.428-.247.422-.206.412-.16.401-.116.391-.07.378-.023.37h-1.398l.035-.558.1-.547.16-.537.208-.523.255-.512.296-.503.33-.494.36-.487.388-.482.412-.478.43-.473.448-.471.461-.469.47-.465.474-.463.476-.462.475-.458.468-.457.46-.455.446-.452.43-.45.406-.448.384-.443.354-.44.323-.434.286-.428.247-.421.206-.411.16-.4.115-.389.07-.377.023-.367.699-.732h.004zm-.699.732v-.732h.7l-.7.732zm10.745-.063h-1.398l.7.732h-.591l-.533.001-.48.001-.428.001-.381.002-.339.002-.3.002-.267.002-.235.003-.208.002-.183.002-.166.004-.15.002-.14.004-.131.002-.127.003-.13.004-.131.002-.142.003-.152.003-.168.003-.19.002-.21.003-.238.002-.268.002-.302.002-.341.003-.385.001-.43.001-.48.001-.533.001h-.591v-1.465h.59l.533-.001.48-.001.428-.001.381-.002.339-.002.3-.002.267-.002.236-.003.207-.002.183-.002.166-.004.15-.002.138-.003.132-.003.127-.003.13-.004.131-.002.141-.003.152-.003.168-.003.189-.002.21-.003.237-.002.269-.002.302-.002.34-.003.384-.001.43-.001.48-.001.533-.001h.592l.699.732h.004zm-.699-.732h.699v.732l-.699-.732zM53.09 46.755h-1.4l-.024-.36-.071-.37-.12-.383-.165-.396-.213-.408-.256-.418-.296-.425-.335-.433-.368-.438-.397-.442-.422-.446-.446-.448-.461-.451-.477-.454-.485-.456-.492-.457-.494-.46-.492-.46-.487-.463-.476-.465-.465-.467-.447-.472-.426-.475-.401-.479-.374-.483-.342-.49-.305-.499-.266-.508-.218-.52-.164-.533-.105-.547-.037-.557h1.398l.023.36.072.37.12.383.165.396.213.408.256.418.296.425.334.433.368.438.397.442.423.446.445.448.462.451.476.454.486.456.49.457.495.46.492.46.487.463.476.465.464.468.447.472.427.474.401.479.373.483.343.49.305.5.265.508.218.52.165.533.105.546.037.557zm-1.398 63.139V46.755h1.398v63.139l-.7.732-.698-.732zm1.398 0v.732h-.7l.7-.732zM33.215 11.943v20.209h-1.398v-20.21l.699-.731.699.732zm-1.398 0v-.732h.699l-.699.732zm10.046.732h-9.348V11.21h9.348l.699.732-.699.732zm0-1.465h.699v.732l-.699-.732zm-.699 20.878V11.942h1.398v20.146h-1.398zm-9.557-21.836l1.343 1.116-.868 1.149L30.74 11.4l-.265-.573 1.133-.576zm-.868 1.149l-.264-.219-.001-.354.265.573zm1.127-2.984l.006 2.408-1.398.003-.006-2.407.305-.606 1.093.602zm-1.398.004v-.387l.303-.22-.304.607h.001zm2.443-.368l-1.349.97-.79-1.208 1.35-.97.394-.129.395 1.337zm-.79-1.209l.178-.128h.217l-.395.128zm9.743 1.337h-9.348V6.716h9.348l.395.128-.395 1.337zm0-1.465h.217l.178.128-.395-.128zm.946 2.302l-1.342-.965.79-1.209 1.342.965.304.604-1.094.604zm.79-1.209l.304.219v.386L43.6 7.81zm-1.094 3.017V8.413h1.398v2.413l-.265.574-1.133-.574zm1.398 0v.354l-.265.22.265-.574zm-2.474.542l1.342-1.116.868 1.148-1.342 1.116-.868-1.148zM34.55.733v6.714h-1.398V.733l.7-.732.698.732zm-1.398 0V.001h.7l-.7.732zm7.376.732H33.85V0h6.677l.699.732-.7.732v.001zm0-1.465h.699v.732l-.7-.732zm-.7 7.447V.733h1.399v6.714h-1.398zM16.914 155c-.881 0-1.989-.869-3.322-2.609-1.334-1.739-2.662-3.832-3.983-6.279-1.322-2.446-2.398-4.688-3.228-6.729a371.464 371.464 0 00-2.04 7.455 327.164 327.164 0 01-1.85 6.828c-.654 0-1.233-.19-1.736-.569-.503-.38-.755-.844-.755-1.393 0-.392.177-1.112.529-2.158 1.686-5.441 3.233-10.13 4.643-14.067a235.999 235.999 0 014.908-12.496c-.957.156-1.782.386-2.474.686a26.81 26.81 0 00-2.246 1.118c-.478.287-.78.431-.906.431-.177 0-.415-.131-.718-.393-.301-.261-.452-.484-.452-.667C6.506 122.72 9.337 122 11.778 122c1.56 0 3.07.262 4.53.785 1.46.523 2.662 1.334 3.606 2.432.943 1.098 1.416 2.472 1.416 4.12 0 2.327-.9 4.126-2.7 5.395a14.992 14.992 0 01-5.889 2.511c-2.127.405-3.958.608-5.494.608a148.796 148.796 0 001.283 2.354c1.083 2.014 2.033 3.675 2.852 4.982.817 1.308 1.836 2.688 3.057 4.139 1.22 1.451 2.688 2.91 4.4 4.375-.152.34-.423.642-.813.903-.39.261-.762.393-1.113.393V155zm-9.93-17.774a20.255 20.255 0 005.663-1.178c1.787-.653 3.259-1.608 4.418-2.864 1.158-1.257 1.736-2.812 1.736-4.669 0-1.988-.648-3.434-1.946-4.335-1.295-.903-2.9-1.354-4.813-1.354-1.51 3.14-3.196 7.939-5.06 14.4h.002zm15.706 13.419c-.352 0-.641-.092-.869-.274-.226-.183-.34-.445-.34-.785 0-.418.24-.791.717-1.119.479-.327.97-.49 1.473-.49.653 0 .98.314.98.941 0 .393-.206.779-.622 1.158-.415.379-.862.569-1.34.569h.001zm9.175.862c-1.032 0-1.787-.326-2.266-.98-.479-.653-.717-1.517-.717-2.59s.214-2.197.642-3.374c.428-1.177.982-2.158 1.662-2.943.68-.785 1.359-1.178 2.039-1.178.226 0 .49.067.792.197-.303.261-.666.836-1.095 1.726-.428.89-.8 1.837-1.114 2.844-.315 1.007-.472 1.824-.472 2.453 0 1.491.453 2.237 1.36 2.237.529 0 1.158-.288 1.888-.864.73-.576 1.447-1.334 2.152-2.276-.705-.602-1.253-1.386-1.642-2.353a8.005 8.005 0 01-.585-3.021c0-1.361.334-2.525 1-3.493.667-.968 1.568-1.452 2.7-1.452.956 0 1.63.267 2.02.804.39.536.585 1.275.585 2.217 0 .994-.233 2.112-.699 3.354a19.202 19.202 0 01-1.83 3.629c.453.261.93.393 1.434.393.73 0 1.485-.229 2.266-.687.78-.457 1.372-1.17 1.775-2.137l.453.391c-.479 1.152-1.159 2.001-2.04 2.551-.88.549-1.787.823-2.718.823-.68 0-1.285-.131-1.813-.393-.906 1.23-1.869 2.225-2.888 2.983-1.02.759-1.982 1.138-2.888 1.138v.001zm5.55-5.767A17.025 17.025 0 0039 142.621c.402-1.06.604-2.034.604-2.924 0-.732-.107-1.282-.322-1.647-.213-.366-.483-.55-.81-.55-.353 0-.712.177-1.077.53-.365.353-.667.837-.906 1.451a5.52 5.52 0 00-.359 2.021c0 .812.107 1.59.321 2.335.214.745.536 1.38.963 1.903zm8.759 5.69c-1.032 0-1.794-.367-2.285-1.098-.491-.733-.736-1.714-.736-2.943 0-2.354.78-5.552 2.342-9.593 1.56-4.041 3.303-7.683 5.23-10.927 1.925-3.243 3.315-4.866 4.172-4.866.352 0 .648.32.886.961.239.641.36 1.289.36 1.943 0 1.203-.472 2.975-1.416 5.316-.945 2.341-2.184 4.715-3.72 7.121-1.536 2.407-3.172 4.355-4.907 5.846-.328 1.517-.492 2.838-.492 3.963 0 2.015.554 3.021 1.66 3.021.933 0 1.883-.613 2.851-1.843.97-1.229 1.831-2.708 2.586-4.434l.568.314c-2.166 4.813-4.531 7.22-7.098 7.22l-.001-.001zm.264-9.573c1.385-1.44 2.737-3.251 4.06-5.435 1.32-2.185 2.397-4.277 3.227-6.277.83-2.002 1.246-3.446 1.246-4.336 0-.419-.088-.627-.265-.627-.352 0-1.076.896-2.17 2.687-1.096 1.791-2.222 3.983-3.38 6.573-1.158 2.589-2.064 5.061-2.719 7.415h.001zm12.762-8.554c-.453 0-.824-.111-1.114-.334-.29-.221-.435-.543-.435-.961 0-.523.303-.995.906-1.412.604-.418 1.221-.627 1.85-.627.83 0 1.246.406 1.246 1.217 0 .497-.258.974-.773 1.431-.516.458-1.076.687-1.68.687v-.001zm-4.53 17.97c-.933 0-1.65-.307-2.153-.922-.504-.615-.755-1.405-.755-2.374 0-1.02.284-2.432.849-4.237.566-1.806 1.272-3.388 2.114-4.749.843-1.36 1.668-2.04 2.473-2.04a.81.81 0 01.585.235c.163.157.246.367.246.627 0 .367-.403 1.243-1.208 2.629-.83 1.44-1.491 2.727-1.983 3.865-.49 1.138-.736 2.217-.736 3.237 0 .915.145 1.537.434 1.865.29.326.762.49 1.416.49 1.964 0 3.902-2.002 5.815-6.003l.34.392c-.705 2.198-1.742 3.911-3.115 5.14-1.372 1.229-2.813 1.844-4.323 1.844v.001zm8.985.236c-1.032 0-1.787-.327-2.266-.981-.479-.653-.717-1.517-.717-2.59s.214-2.197.642-3.374c.428-1.176.982-2.158 1.661-2.943.68-.785 1.36-1.178 2.04-1.178.226 0 .49.067.792.197-.303.262-.667.836-1.095 1.726-.428.89-.8 1.837-1.114 2.844-.314 1.008-.472 1.824-.472 2.453 0 1.491.454 2.237 1.36 2.237.528 0 1.157-.288 1.887-.864.73-.576 1.447-1.334 2.151-2.276-.704-.602-1.251-1.386-1.642-2.353a8.026 8.026 0 01-.585-3.021c0-1.361.335-2.525 1-3.493.668-.967 1.567-1.452 2.7-1.452.957 0 1.63.268 2.02.805.39.535.586 1.275.586 2.216 0 .994-.233 2.112-.7 3.354a19.208 19.208 0 01-1.83 3.629c.452.262.93.393 1.435.393.73 0 1.485-.229 2.265-.687.78-.457 1.372-1.17 1.775-2.137l.452.392c-.478 1.151-1.158 2-2.04 2.55-.88.549-1.786.823-2.718.823-.68 0-1.284-.131-1.813-.393-.906 1.23-1.868 2.225-2.888 2.983-1.02.759-1.981 1.138-2.887 1.138l.001.002zm5.55-5.768a16.95 16.95 0 001.586-3.119c.401-1.06.604-2.034.604-2.924 0-.732-.107-1.281-.32-1.647-.214-.366-.484-.55-.812-.55-.352 0-.711.178-1.076.531-.364.353-.667.836-.906 1.451a5.513 5.513 0 00-.359 2.021c0 .811.107 1.589.321 2.334.214.745.536 1.38.963 1.903z" fill="#fff"/></svg>