<svg width="40" height="40" fill="none" xmlns="http://www.w3.org/2000/svg"><path d="M32.383 14.729h-2.519l.76-8.712a.528.528 0 00.001-.047v-.004a.586.586 0 00-.353-.537l-.005-.003a.558.558 0 00-.04-.015l-.016-.005-.034-.009-.023-.005-.03-.005-.029-.004h-.005l-.03-.002H18.048a.586.586 0 000 1.171H29.4l-1.166 13.389v.003l-.294 3.378H7.58l.34-3.515h3.877a.586.586 0 000-1.172H8.034l.719-7.422h6.17a.586.586 0 100-1.171H8.866l.338-3.49h6.5a.587.587 0 000-1.172H8.672a.586.586 0 00-.572.463l-.001.005a.634.634 0 00-.007.045l-.002.014v.003l-.401 4.131H.586a.586.586 0 100 1.172h6.99l-.72 7.422h-2.09a.586.586 0 100 1.172h1.977l-.392 4.04v.002l-.605 6.249v.004c-.002.008-.001.016-.002.024l-.002.032v.002l.003.045v.014a.58.58 0 00.007.045l.002.013.009.033.006.023.002.007a.585.585 0 00.14.23l.003.003.02.017a.58.58 0 00.135.094l.032.015.01.003a.33.33 0 00.044.016l.004.002a.62.62 0 00.053.013l.007.001a.58.58 0 00.11.01h2.61a4.467 4.467 0 004.42 3.876 4.467 4.467 0 004.422-3.875h9.399a4.467 4.467 0 004.42 3.875 4.467 4.467 0 004.422-3.875h2.61a.61.61 0 00.058-.003l.01-.002a.607.607 0 00.046-.007l.019-.004a.492.492 0 00.034-.009l.022-.008a.618.618 0 00.03-.01l.023-.01.025-.013a.577.577 0 00.07-.041l.023-.018.019-.015a.518.518 0 00.023-.021l.016-.016a.582.582 0 00.024-.025l.012-.015a.67.67 0 00.024-.032l.008-.011a.536.536 0 00.053-.098l.006-.015a.617.617 0 00.013-.036l.007-.025.007-.03.005-.026.004-.024c.025-.199.484-3.88.689-6.26v-.007c.06-.686.097-1.264.097-1.618 0-4.2-3.417-7.617-7.617-7.617zm-2.62 1.172h2.396l-.306 3.515h-2.397l.306-3.515zM13.36 33.448a3.293 3.293 0 01-3.29-3.29 3.293 3.293 0 013.29-3.289 3.293 3.293 0 013.29 3.29 3.293 3.293 0 01-3.29 3.289zm18.241 0a3.293 3.293 0 01-3.289-3.29 3.293 3.293 0 013.29-3.289 3.293 3.293 0 013.289 3.29 3.293 3.293 0 01-3.29 3.289zm6.513-3.876h-2.09a4.467 4.467 0 00-4.422-3.875 4.467 4.467 0 00-4.422 3.875h-9.398a4.467 4.467 0 00-4.422-3.875 4.467 4.467 0 00-4.422 3.875H6.974l.492-5.078h21.012c.02 0 .039-.001.058-.003l.01-.002a.626.626 0 00.046-.006l.02-.005a.657.657 0 00.034-.01l.023-.007.03-.01a.474.474 0 00.049-.024l.024-.013a.719.719 0 00.088-.063.51.51 0 00.094-.104.666.666 0 00.03-.046l.012-.021.013-.028.01-.023.01-.028.01-.026.006-.027.007-.028.004-.028.004-.03v-.003l.294-3.371h3.029c1.795 0 2.605.93 3.462 1.915.707.812 1.497 1.719 2.839 1.94-.17 1.802-.446 4.116-.57 5.13zm.67-6.303c-.87-.178-1.407-.79-2.056-1.535-.811-.933-1.802-2.07-3.702-2.283l.304-3.48c3.106.46 5.498 3.143 5.498 6.375 0 .22-.016.539-.044.923z" fill="#688800"/><path d="M13.36 28.01a2.15 2.15 0 00-2.148 2.148 2.15 2.15 0 002.148 2.149 2.15 2.15 0 002.149-2.149 2.15 2.15 0 00-2.149-2.148zm0 3.125a.978.978 0 010-1.953.978.978 0 010 1.953zm18.242-3.125a2.15 2.15 0 00-2.149 2.148c0 1.185.964 2.149 2.149 2.149a2.15 2.15 0 002.148-2.149 2.15 2.15 0 00-2.148-2.148zm0 3.125a.978.978 0 010-1.953.978.978 0 010 1.953zM5.547 14.729H2.683a.586.586 0 100 1.17h2.864a.586.586 0 100-1.17z" fill="#688800"/></svg>