<svg width="40" height="40" fill="none" xmlns="http://www.w3.org/2000/svg"><path d="M38.162 35.07h-.667V17.689A5.438 5.438 0 0040 13.11a.586.586 0 00-.077-.29l-4.65-8.137a1.843 1.843 0 00-1.596-.926H6.323a1.84 1.84 0 00-1.596.926L.077 12.82a.586.586 0 00-.077.291c0 1.92 1 3.608 2.505 4.577V35.07h-.667a.586.586 0 000 1.172h36.324a.586.586 0 000-1.172zM1.212 13.698h1.879a.586.586 0 100-1.172H1.596l4.148-7.26a.668.668 0 01.579-.336h27.354c.239 0 .46.13.579.336l4.148 7.26H36.91a.586.586 0 000 1.172h1.879a4.274 4.274 0 01-4.227 3.682 4.273 4.273 0 01-4.227-3.682h4.07a.586.586 0 100-1.172H5.596a.586.586 0 000 1.172h4.07a4.273 4.273 0 01-4.227 3.682 4.274 4.274 0 01-4.227-3.682zm27.868 0a4.273 4.273 0 01-4.226 3.682 4.273 4.273 0 01-4.227-3.682h8.453zm-9.707 0a4.273 4.273 0 01-4.227 3.682 4.273 4.273 0 01-4.226-3.682h8.453zm13.819 21.374h-6.343v-1.96h6.343v1.96zm0-3.132h-6.343V21.212h6.343V31.94zm3.131 3.132h-1.96V20.626a.586.586 0 00-.585-.586h-7.515a.586.586 0 00-.586.586v14.445h-22V18.256c.553.19 1.146.295 1.762.295a5.445 5.445 0 004.854-2.985 5.445 5.445 0 004.854 2.985A5.445 5.445 0 0020 15.566a5.445 5.445 0 004.854 2.985 5.445 5.445 0 004.853-2.985 5.445 5.445 0 004.853 2.985c.617 0 1.21-.105 1.763-.295V35.07z" fill="#688800"/><path d="M23.132 20.04H6.222a.586.586 0 00-.585.586v11.899c0 .324.262.586.586.586h16.909a.586.586 0 00.586-.586V20.626a.586.586 0 00-.586-.586zm-.586 11.899H6.809V21.212h15.737v10.727z" fill="#688800"/></svg>