<svg width="24" height="24" fill="none" xmlns="http://www.w3.org/2000/svg"><path d="M20.485 3.515A11.921 11.921 0 0012 0a11.921 11.921 0 00-8.485 3.515A11.921 11.921 0 000 12c0 3.205 1.248 6.219 3.515 8.485A11.921 11.921 0 0012 24c3.205 0 6.219-1.248 8.485-3.515A11.922 11.922 0 0024 12c0-3.205-1.248-6.219-3.515-8.485zM12 23.242C5.801 23.242.758 18.2.758 12 .758 5.801 5.8.758 12 .758 18.199.758 23.242 5.8 23.242 12c0 6.199-5.043 11.242-11.242 11.242z" fill="#fff"/><path d="M18.797 4.624a.379.379 0 00-.402-.034L3.742 12.169a.38.38 0 00.005.675l3.832 1.917v3.797c0 .099.034.197.102.27a.38.38 0 00.461.072l4.385-2.436 3.356 1.438a.38.38 0 00.53-.27l.85-4.246a.379.379 0 00-.743-.148l-.758 3.788-3.107-1.332a.38.38 0 00-.333.017l-3.985 2.213v-3.398a.38.38 0 00-.21-.339L4.753 12.5l13.29-6.874-1.153 5.767a.38.38 0 00.743.148L18.94 5a.379.379 0 00-.143-.376z" fill="#fff"/><path d="M16.34 7.723a.379.379 0 00-.496-.088l-6.569 4.042a.379.379 0 00-.18.323v4.042a.379.379 0 00.718.17l1.488-2.977 5.009-5.01a.38.38 0 00.03-.502zm-5.619 5.02a.381.381 0 00-.07.098l-.798 1.596v-2.225l3.639-2.24-2.77 2.77z" fill="#fff"/></svg>