<svg width="32" height="32" fill="none" xmlns="http://www.w3.org/2000/svg"><path d="M27.314 4.686A15.895 15.895 0 0016 0 15.895 15.895 0 004.686 4.686 15.895 15.895 0 000 16c0 4.274 1.664 8.292 4.686 11.314A15.895 15.895 0 0016 32c4.274 0 8.292-1.664 11.314-4.686A15.896 15.896 0 0032 16c0-4.274-1.664-8.292-4.686-11.314zM16 30.99C7.735 30.99 1.01 24.265 1.01 16S7.736 1.01 16 1.01 30.99 7.736 30.99 16 24.264 30.99 16 30.99z" fill="#688800"/><path d="M25.062 6.165a.505.505 0 00-.536-.045L4.989 16.225a.505.505 0 00.006.9l5.11 2.556v5.063a.507.507 0 00.75.456l5.848-3.248 4.474 1.917a.506.506 0 00.708-.36l1.132-5.66a.505.505 0 00-.99-.199l-1.01 5.05-4.144-1.775a.506.506 0 00-.445.023l-5.312 2.951v-4.53a.505.505 0 00-.28-.453l-4.5-2.25L24.056 7.5l-1.538 7.69a.505.505 0 10.991.197l1.744-8.72a.505.505 0 00-.191-.502z" fill="#688800"/><path d="M21.786 10.297a.505.505 0 00-.662-.117l-8.758 5.39a.505.505 0 00-.24.43v5.39a.505.505 0 00.957.225l1.984-3.968 6.68-6.68a.505.505 0 00.039-.67zm-7.491 6.693a.507.507 0 00-.095.131l-1.063 2.128v-2.967l4.852-2.986-3.694 3.694z" fill="#688800"/></svg>