<svg width="32" height="32" fill="none" xmlns="http://www.w3.org/2000/svg"><path d="M27.314 4.686A15.895 15.895 0 0016 0 15.895 15.895 0 004.686 4.686 15.895 15.895 0 000 16c0 4.274 1.664 8.292 4.686 11.314A15.895 15.895 0 0016 32c4.274 0 8.292-1.664 11.314-4.686A15.895 15.895 0 0032 16c0-4.274-1.664-8.292-4.686-11.314zM16 30.99C7.735 30.99 1.01 24.265 1.01 16S7.736 1.01 16 1.01 30.99 7.736 30.99 16 24.264 30.99 16 30.99z" fill="#688800"/><path d="M25.452 22.663l-.547-2.875a.562.562 0 00-.45-.443l-4.301-.835a.582.582 0 00-.515.152l-1.767 1.714c-2.977-1.29-4.622-2.89-6.071-5.903l1.76-1.709a.544.544 0 00.157-.5l-.86-4.175a.562.562 0 00-.456-.435l-2.964-.531a.584.584 0 00-.23.004 4.248 4.248 0 00-2.046 1.097c-.974.946-1.347 2.329-1.076 3.998.123.76.306 1.547.544 2.34a.574.574 0 00.707.376.551.551 0 00.388-.686 17.363 17.363 0 01-.512-2.202c-.215-1.324.04-2.348.756-3.043.385-.373.86-.64 1.383-.774l2.463.441.725 3.517-1.826 1.771a.542.542 0 00-.117.617c1.659 3.606 3.605 5.494 7.181 6.965a.583.583 0 00.626-.119l1.825-1.771 3.624.703.455 2.39a2.961 2.961 0 01-.797 1.342c-.717.696-1.772.943-3.136.734-2.727-.416-6.509-1.7-8.946-4.057l-.035-.034c-1.121-1.092-2.12-2.6-2.89-4.358a.577.577 0 00-.748-.293.548.548 0 00-.302.726c.826 1.887 1.909 3.515 3.134 4.709l.035.034c2.632 2.543 6.671 3.924 9.575 4.367.364.055.715.083 1.051.083 1.252 0 2.3-.383 3.068-1.128a4.052 4.052 0 001.13-1.986.533.533 0 00.005-.223zM17.52 10.724a.562.562 0 00-.57.553c0 .306.256.554.57.554 1.364 0 2.472 1.076 2.472 2.398 0 .302.26.554.57.554a.568.568 0 00.571-.554c0-1.933-1.62-3.505-3.612-3.505z" fill="#688800"/><path d="M17.52 8.362c-.223 0-.449.012-.67.036a.558.558 0 00-.505.61.567.567 0 00.63.49c.18-.02.363-.03.546-.03 2.704 0 4.905 2.136 4.905 4.761a4.7 4.7 0 01-.03.53.558.558 0 00.504.611.572.572 0 00.63-.49c.024-.215.037-.434.037-.65 0-3.236-2.712-5.868-6.046-5.868z" fill="#688800"/><path d="M17.52 6c-.216 0-.435.008-.65.024a.559.559 0 00-.527.594.565.565 0 00.612.51c.188-.014.378-.02.566-.02 4.046 0 7.338 3.194 7.338 7.121 0 .556-.066 1.11-.196 1.644a.56.56 0 00.413.664.577.577 0 00.697-.409c.15-.619.227-1.257.227-1.899C26 9.692 22.196 6 17.52 6z" fill="#688800"/></svg>