<svg width="24" height="24" fill="none" xmlns="http://www.w3.org/2000/svg"><path d="M20.485 3.515A11.921 11.921 0 0012 0a11.921 11.921 0 00-8.485 3.515A11.921 11.921 0 000 12c0 3.205 1.248 6.219 3.515 8.485A11.921 11.921 0 0012 24c3.205 0 6.219-1.248 8.485-3.515A11.921 11.921 0 0024 12c0-3.205-1.248-6.219-3.515-8.485zM12 23.242C5.801 23.242.758 18.2.758 12 .758 5.801 5.8.758 12 .758 18.199.758 23.242 5.8 23.242 12c0 6.199-5.043 11.242-11.242 11.242z" fill="#fff"/><path d="M19.089 16.997l-.41-2.156a.421.421 0 00-.337-.332l-3.227-.626a.436.436 0 00-.386.113l-1.325 1.286c-2.233-.967-3.467-2.167-4.553-4.427l1.32-1.282a.407.407 0 00.117-.375l-.645-3.13a.422.422 0 00-.342-.328L7.08 5.342a.438.438 0 00-.173.004 3.184 3.184 0 00-1.534.822c-.731.71-1.01 1.747-.808 2.998.093.57.23 1.16.409 1.755a.43.43 0 00.53.283.414.414 0 00.291-.515 13.022 13.022 0 01-.384-1.652c-.161-.992.03-1.76.567-2.282.288-.28.645-.48 1.037-.58l1.847.33.544 2.638-1.37 1.329a.406.406 0 00-.087.463c1.244 2.704 2.704 4.12 5.386 5.223a.44.44 0 00.47-.089l1.368-1.328 2.718.527.34 1.792a2.22 2.22 0 01-.597 1.007c-.538.521-1.329.707-2.352.55-2.045-.312-4.881-1.275-6.71-3.042l-.026-.026c-.84-.82-1.59-1.95-2.167-3.268a.433.433 0 00-.561-.22.41.41 0 00-.227.544c.62 1.416 1.432 2.636 2.35 3.532l.027.025c1.974 1.908 5.004 2.943 7.181 3.276.274.041.537.062.789.062.938 0 1.724-.287 2.3-.846.423-.41.716-.925.848-1.49a.401.401 0 00.004-.167zM13.14 8.043a.422.422 0 00-.427.415c0 .23.191.415.428.415 1.022 0 1.853.807 1.853 1.8 0 .225.195.414.428.414a.426.426 0 00.428-.415c0-1.45-1.215-2.63-2.71-2.63z" fill="#fff"/><path d="M13.14 6.271c-.168 0-.337.01-.503.027a.418.418 0 00-.379.458.425.425 0 00.473.367c.135-.014.272-.022.409-.022 2.028 0 3.679 1.602 3.679 3.57 0 .133-.008.267-.023.398a.418.418 0 00.379.458.43.43 0 00.472-.367 4.35 4.35 0 00.027-.488c0-2.427-2.034-4.4-4.534-4.4z" fill="#fff"/><path d="M13.14 4.5c-.163 0-.327.006-.489.018a.42.42 0 00-.394.445c.018.229.222.4.459.383.14-.01.283-.016.424-.016 3.035 0 5.504 2.397 5.504 5.342 0 .417-.05.832-.147 1.233a.418.418 0 00.31.498.432.432 0 00.522-.307c.113-.464.17-.943.17-1.424 0-3.403-2.852-6.172-6.36-6.172z" fill="#fff"/></svg>