<svg width="512" height="512" fill="none" xmlns="http://www.w3.org/2000/svg"><rect width="512" height="512" rx="64" fill="#688800"/><path d="M212.935 444.228l-36.674-63.521 4.507-2.602 36.674 63.521-4.507 2.602zm-90.788-211.942l5.215-.552.178 1.558.103 1.561.032 1.553-.036 1.553-.093 1.547-.147 1.543-.198 1.539-.24 1.532-.278 1.526-.307 1.517-.338 1.511-.362 1.505-.376 1.497-.393 1.484-.398 1.476-.404 1.465-.401 1.453-.394 1.44-.386 1.43-.37 1.416-.35 1.399-.328 1.382-.298 1.364-.268 1.343-.231 1.315-.192 1.299-.15 1.273-.098 1.245-.049 1.215.003 1.186.062 1.157.124 1.13-5.219.52-.154-1.433-.076-1.439-.008-1.445.059-1.447.116-1.447.167-1.451.214-1.454.254-1.457.288-1.458.322-1.457.347-1.456.365-1.458.384-1.458.393-1.459.402-1.459.402-1.453.397-1.452.388-1.451.381-1.446.363-1.437.344-1.435.319-1.421.287-1.417.257-1.405.216-1.39.175-1.378.13-1.366.082-1.348.031-1.328-.024-1.317-.083-1.292-.148-1.279-.003.011zm78.173 10.119l-75.93 43.838-2.729-4.727 75.93-43.838 3.617 1.061-.89 3.662.002.004zm-2.729-4.727l2.253-1.301 1.364 2.362-3.617-1.061zm43.381 80.343l-44.269-76.677 4.507-2.602 44.269 76.677-.89 3.662-3.617-1.06zm4.507-2.602l1.363 2.361-2.253 1.301.89-3.662zm-79.546 42.778l75.929-43.838 2.729 4.726-75.93 43.838-3.616-1.061.89-3.662-.002-.003zm2.728 4.726l-2.253 1.301-1.363-2.362 3.616 1.061zM125.28 282.58l44.269 76.677-4.506 2.602-44.27-76.677.89-3.662 3.617 1.06zm-4.507 2.602l-1.363-2.361 2.253-1.301-.89 3.662zm102.762 199.087l96.812-55.894 2.728 4.726-96.811 55.894-3.616-1.06.89-3.662-.003-.004zm2.729 4.726l-2.253 1.301-1.363-2.361 3.616 1.06zM105.361 284.788l4.506-2.601 3.655 6.33 3.657 6.333 3.659 6.338 3.658 6.337 3.662 6.341 3.663 6.345 3.663 6.345 3.663 6.344 3.665 6.349 3.665 6.348 3.668 6.352 3.667 6.352 3.668 6.353 3.667 6.352 3.668 6.352 3.669 6.356 3.67 6.355 3.669 6.356 3.67 6.356 3.669 6.356 3.67 6.356 3.669 6.356 3.67 6.356 3.667 6.352 3.668 6.352 3.667 6.352 3.668 6.352 3.665 6.349 3.665 6.348 3.665 6.348 3.663 6.345 3.664 6.345-4.507 2.602-3.663-6.345-3.663-6.345-3.665-6.348-3.666-6.349-3.665-6.348-3.667-6.352-3.668-6.352-3.667-6.353-3.668-6.352-3.669-6.355-3.67-6.356-3.669-6.356-3.67-6.356-3.669-6.356-3.67-6.356-3.669-6.355-3.67-6.356-3.667-6.352-3.668-6.353-3.667-6.352-3.668-6.352-3.667-6.352-3.665-6.348-3.666-6.349-3.663-6.345-3.663-6.344-3.663-6.345-3.661-6.341-3.659-6.338-3.659-6.337-3.657-6.334-3.654-6.33zm6.154-70.161l2.728 4.727.89-3.663.92 1.859.696 1.948.485 2.021.296 2.071.13 2.123-.02 2.164-.146 2.203-.257 2.243-.355 2.274-.44 2.303-.51 2.33-.568 2.347-.614 2.366-.648 2.374-.667 2.376-.68 2.378-.675 2.36-.659 2.347-.633 2.326-.596 2.29-.546 2.252-.481 2.204-.406 2.146-.323 2.079-.231 2.005-.125 1.915-.012 1.82.105 1.713.227 1.594.356 1.474.481 1.348.613 1.238-4.506 2.602-.928-1.864-.695-1.954-.486-2.025-.301-2.078-.132-2.126.015-2.172.144-2.207.254-2.241.353-2.278.441-2.309.507-2.327.565-2.351.613-2.369.648-2.375.667-2.375.676-2.376.675-2.361.659-2.346.635-2.323.596-2.29.546-2.251.48-2.199.411-2.144.324-2.079.229-2 .125-1.915.014-1.816-.102-1.71-.229-1.587-.352-1.467-.479-1.345-.609-1.23.89-3.662.017-.005zm-.89 3.663l-1.364-2.362 2.254-1.301-.89 3.663zm34.521-20.202l-4.506 2.601 3.616 1.061-1.903 1.099-1.714.994-1.545.897-1.378.801-1.228.713-1.088.638-.965.568-.854.502-.753.445-.666.394-.587.349-.527.319-.483.289-.44.269-.422.253-.401.246-.411.253-.422.253-.451.275-.486.291-.534.323-.605.359-.678.401-.76.449-.861.507-.969.569-1.095.642-1.238.72-1.382.803-1.545.897-1.717.996-1.908 1.101-2.728-4.726 1.903-1.099 1.714-.995 1.545-.896 1.378-.801 1.228-.714 1.088-.638.965-.567.854-.503.757-.446.662-.393.587-.349.527-.319.479-.286.441-.269.421-.253.401-.246.412-.253.421-.253.448-.273.486-.291.534-.323.605-.359.674-.399.76-.449.861-.507.969-.569 1.095-.642 1.235-.718 1.382-.803 1.545-.897 1.717-.996 1.907-1.101 3.617 1.06.016-.004zm-3.616-1.061l2.253-1.301 1.363 2.362-3.616-1.061zm64.859 28.773l-4.506 2.601-.746-1.116-.92-1.061-1.098-1.011-1.272-.971-1.444-.92-1.605-.872-1.747-.819-1.884-.774-2.001-.727-2.104-.688-2.192-.65-2.269-.617-2.33-.596-2.38-.577-2.414-.567-2.438-.559-2.449-.561-2.444-.57-2.43-.587-2.402-.614-2.367-.644-2.321-.69-2.257-.736-2.186-.798-2.104-.864-2.016-.945-1.913-1.039-1.801-1.147-1.672-1.272-1.522-1.412-1.357-1.567-1.155-1.727 4.506-2.602.746 1.116.92 1.061 1.098 1.011 1.272.971 1.444.92 1.605.872 1.746.819 1.885.775 2.001.726 2.103.688 2.193.65 2.269.617 2.33.596 2.38.577 2.414.567 2.434.561 2.449.561 2.444.57 2.43.588 2.402.613 2.367.644 2.321.69 2.257.737 2.186.797 2.104.864 2.017.945 1.912 1.039 1.802 1.147 1.671 1.272 1.522 1.412 1.357 1.567 1.156 1.728.003-.002zm113.066 206.243L201.883 228.401l4.506-2.601 117.573 203.641-.89 3.662-3.617-1.06zm4.507-2.602l1.363 2.361-2.253 1.301.89-3.662zM77.496 150.509l37.632 65.181-4.507 2.602-37.632-65.181.89-3.662 3.617 1.06zm-4.507 2.602l-1.363-2.361 2.253-1.301-.89 3.662zm33.749-16.337l-30.136 17.4-2.729-4.727 30.136-17.399 3.617 1.061-.89 3.662.002.003zm-2.729-4.726l2.254-1.301 1.363 2.362-3.617-1.061zm36.625 68.64l-37.515-64.978 4.507-2.601 37.515 64.977-4.507 2.602zm-71.472-52.64l6.408 1.1-.658 5.321-6.408-1.099-1.92-1.354 2.578-3.968zm-.658 5.322l-1.258-.215-.663-1.139 1.921 1.354zm-1.921-11.721l4.5 7.754-4.5 2.613-4.5-7.754-.148-2.521 4.648-.092zm-4.5 2.613l-.725-1.247.573-1.272.148 2.521.004-.002zm7.189-5.732l-2.541 5.64-4.796-2.429 2.54-5.64 1.035-1.149 3.762 3.578v0zm-4.796-2.429l.334-.745.7-.404-1.034 1.149zm33.898-13.821l-30.136 17.399-2.728-4.727 30.136-17.399 1.511-.321 1.217 5.048v0zm-2.728-4.727l.699-.403.812.082-1.511.321zm7.336 5.663l-6.123-.613.295-5.368 6.122.613 2.105 1.381-2.401 3.984.002.003zm.294-5.368l1.388.14.719 1.245-2.105-1.381-.002-.004zm2.092 11.765l-4.493-7.782 4.506-2.602 4.493 7.783.215 2.344-4.721.257zm4.506-2.601l.659 1.141-.444 1.203-.215-2.344zm-6.965 6.352l2.248-6.097 4.935 2.087-2.248 6.097-4.935-2.087zM60.926 111.87l12.502 21.654-4.506 2.602-12.502-21.654.89-3.663 3.616 1.061v0zm-4.506 2.602l-1.363-2.362 2.253-1.301-.89 3.663zm25.14-11.367l-21.524 12.427-2.728-4.726L78.83 98.379l3.617 1.06-.89 3.663.002.003zm-2.729-4.726l2.253-1.3 1.364 2.36-3.617-1.06zm11.614 25.32l-12.502-21.654 4.507-2.602 12.502 21.654-4.507 2.602z" fill="#fff" stroke="#fff" stroke-width="10"/><path d="M429.661 378h6.897l-.361-1.103c2.612-.841 5.176-2.152 7.671-3.833 4.593-3.077 8.109-6.86 10.125-11.429l1.498-3.395-2.815-2.417c-17.404-14.945-32.27-29.785-44.59-44.49l-.002-.002c-12.418-14.808-22.739-28.837-30.979-42.076l-.004-.007c-8.331-13.338-18.025-30.347-29.112-51.046l-.019-.036-.02-.036a1108.789 1108.789 0 01-5.97-10.862l-.004-.008-.004-.007c-1.06-1.941-2.162-3.978-3.31-6.114 14.326-.59 30.698-2.666 49.093-6.176l.003-.001c22.54-4.315 43.364-13.231 62.41-26.701l.002-.002c19.889-14.078 29.83-34.176 29.83-59.664 0-18.003-5.172-33.356-15.737-45.699l-.002-.002c-10.296-12.014-23.38-20.848-39.124-26.512C409.605 30.794 393.526 28 376.927 28c-26.008 0-55.798 7.684-89.256 22.673l-2.956 1.324v3.239c0 2.304.933 4.324 2.018 5.93 1.104 1.635 2.609 3.205 4.344 4.716l.007.005c1.707 1.48 3.392 2.734 5.037 3.64 1.596.877 3.521 1.632 5.611 1.632 1.137 0 2.184-.296 2.908-.54a23.25 23.25 0 002.545-1.062c1.741-.833 3.871-2.022 6.351-3.518 8.133-4.499 15.647-8.247 22.556-11.257 4.418-1.925 9.46-3.573 15.144-4.921-17.65 42.173-33.268 82.285-46.842 120.335-14.503 40.638-30.408 89-47.723 145.076-3.57 10.65-5.671 18.799-5.671 23.768 0 7.473 3.531 13.642 9.736 18.336 6.067 4.591 13.075 6.875 20.845 6.875h3.796l1.02-3.656c8.274-29.655 14.616-53.139 19.02-70.436 6.326-24.025 12.002-45.016 17.027-62.979 7.675 17.575 16.948 36.449 27.816 56.623 13.658 25.375 27.431 47.174 41.319 65.346 6.976 9.134 13.532 16.216 19.675 21.058 6.074 4.787 12.263 7.793 18.407 7.793zm-45.536-204.955h-.001c-15.726 5.775-32.264 9.531-49.612 11.251 17.751-61.045 33.842-106.903 48.275-137.743 17.416.47 31.804 4.89 43.408 13.004l.006.004c11.63 8.108 17.837 21.231 17.837 40.559 0 18.008-5.547 32.786-16.512 44.727-11.305 12.287-25.719 21.709-43.401 28.198z" fill="#fff" stroke="#fff" stroke-width="10"/></svg>