<svg width="512" height="512" viewBox="0 0 512 512" fill="none" xmlns="http://www.w3.org/2000/svg">
<rect width="512" height="512" rx="64" fill="#688800"/>
<path d="M212.935 444.228L176.261 380.707L180.768 378.105L217.442 441.626L212.935 444.228ZM122.147 232.286L127.362 231.734L127.54 233.292L127.643 234.853L127.675 236.406L127.639 237.959L127.546 239.506L127.399 241.049L127.201 242.588L126.961 244.12L126.683 245.646L126.376 247.163L126.038 248.674L125.676 250.179L125.3 251.676L124.907 253.16L124.509 254.636L124.105 256.101L123.704 257.554L123.31 258.994L122.924 260.424L122.554 261.84L122.204 263.239L121.876 264.621L121.578 265.985L121.31 267.328L121.079 268.643L120.887 269.942L120.737 271.215L120.639 272.46L120.59 273.675L120.593 274.861L120.655 276.018L120.779 277.148L115.56 277.668L115.406 276.235L115.33 274.796L115.322 273.351L115.381 271.904L115.497 270.457L115.664 269.006L115.878 267.552L116.132 266.095L116.42 264.637L116.742 263.18L117.089 261.724L117.454 260.266L117.838 258.808L118.231 257.349L118.633 255.89L119.035 254.437L119.432 252.985L119.82 251.534L120.201 250.088L120.564 248.651L120.908 247.216L121.227 245.795L121.514 244.378L121.771 242.973L121.987 241.583L122.162 240.205L122.292 238.839L122.374 237.491L122.405 236.163L122.381 234.846L122.298 233.554L122.15 232.275L122.147 232.286ZM200.32 242.405L124.39 286.243L121.661 281.516L197.591 237.678L201.208 238.739L200.318 242.401L200.32 242.405ZM197.591 237.678L199.844 236.377L201.208 238.739L197.591 237.678ZM240.972 318.021L196.703 241.344L201.21 238.742L245.479 315.419L244.589 319.081L240.972 318.021ZM245.479 315.419L246.842 317.78L244.589 319.081L245.479 315.419ZM165.933 358.197L241.862 314.359L244.591 319.085L168.661 362.923L165.045 361.862L165.935 358.2L165.933 358.197ZM168.661 362.923L166.408 364.224L165.045 361.862L168.661 362.923ZM125.28 282.58L169.549 359.257L165.043 361.859L120.773 285.182L121.663 281.52L125.28 282.58ZM120.773 285.182L119.41 282.821L121.663 281.52L120.773 285.182ZM223.535 484.269L320.347 428.375L323.075 433.101L226.264 488.995L222.648 487.935L223.538 484.273L223.535 484.269ZM226.264 488.995L224.011 490.296L222.648 487.935L226.264 488.995ZM105.361 284.788L109.867 282.187L113.522 288.517L117.179 294.85L120.838 301.188L124.496 307.525L128.158 313.866L131.821 320.211L135.484 326.556L139.147 332.9L142.812 339.249L146.477 345.597L150.145 351.949L153.812 358.301L157.48 364.654L161.147 371.006L164.815 377.358L168.484 383.714L172.154 390.069L175.823 396.425L179.493 402.781L183.162 409.137L186.832 415.493L190.501 421.849L194.171 428.205L197.838 434.557L201.506 440.909L205.173 447.261L208.841 453.613L212.506 459.962L216.171 466.31L219.836 472.658L223.499 479.003L227.163 485.348L222.656 487.95L218.993 481.605L215.33 475.26L211.665 468.912L207.999 462.563L204.334 456.215L200.667 449.863L196.999 443.511L193.332 437.158L189.664 430.806L185.995 424.451L182.325 418.095L178.656 411.739L174.986 405.383L171.317 399.027L167.647 392.671L163.978 386.316L160.308 379.96L156.641 373.608L152.973 367.255L149.306 360.903L145.638 354.551L141.971 348.199L138.306 341.851L134.64 335.502L130.977 329.157L127.314 322.813L123.651 316.468L119.99 310.127L116.331 303.789L112.672 297.452L109.015 291.118L105.361 284.788ZM111.515 214.627L114.243 219.354L115.133 215.691L116.053 217.55L116.749 219.498L117.234 221.519L117.53 223.59L117.66 225.713L117.64 227.877L117.494 230.08L117.237 232.323L116.882 234.597L116.442 236.9L115.932 239.23L115.364 241.577L114.75 243.943L114.102 246.317L113.435 248.693L112.755 251.071L112.08 253.431L111.421 255.778L110.788 258.104L110.192 260.394L109.646 262.646L109.165 264.85L108.759 266.996L108.436 269.075L108.205 271.08L108.08 272.995L108.068 274.815L108.173 276.528L108.4 278.122L108.756 279.596L109.237 280.944L109.85 282.182L105.344 284.784L104.416 282.92L103.721 280.966L103.235 278.941L102.934 276.863L102.802 274.737L102.817 272.565L102.961 270.358L103.215 268.117L103.568 265.839L104.009 263.53L104.516 261.203L105.081 258.852L105.694 256.483L106.342 254.108L107.009 251.733L107.685 249.357L108.36 246.996L109.019 244.65L109.654 242.327L110.25 240.037L110.796 237.786L111.276 235.587L111.687 233.443L112.011 231.364L112.24 229.364L112.365 227.449L112.379 225.633L112.277 223.923L112.048 222.336L111.696 220.869L111.217 219.524L110.608 218.294L111.498 214.632L111.515 214.627ZM110.625 218.29L109.261 215.928L111.515 214.627L110.625 218.29ZM145.146 198.088L140.64 200.689L144.256 201.75L142.353 202.849L140.639 203.843L139.094 204.74L137.716 205.541L136.488 206.254L135.4 206.892L134.435 207.46L133.581 207.962L132.828 208.407L132.162 208.801L131.575 209.15L131.048 209.469L130.565 209.758L130.125 210.027L129.703 210.28L129.302 210.526L128.891 210.779L128.469 211.032L128.018 211.307L127.532 211.598L126.998 211.921L126.393 212.28L125.715 212.681L124.955 213.13L124.094 213.637L123.125 214.206L122.03 214.848L120.792 215.568L119.41 216.371L117.865 217.268L116.148 218.264L114.24 219.365L111.512 214.639L113.415 213.54L115.129 212.545L116.674 211.649L118.052 210.848L119.28 210.134L120.368 209.496L121.333 208.929L122.187 208.426L122.944 207.98L123.606 207.587L124.193 207.238L124.72 206.919L125.199 206.633L125.64 206.364L126.061 206.111L126.462 205.865L126.874 205.612L127.295 205.359L127.743 205.086L128.229 204.795L128.763 204.472L129.368 204.113L130.042 203.714L130.802 203.265L131.663 202.758L132.632 202.189L133.727 201.547L134.962 200.829L136.344 200.026L137.889 199.129L139.606 198.133L141.513 197.032L145.13 198.092L145.146 198.088ZM141.53 197.027L143.783 195.726L145.146 198.088L141.53 197.027ZM206.389 225.8L201.883 228.401L201.137 227.285L200.217 226.224L199.119 225.213L197.847 224.242L196.403 223.322L194.798 222.45L193.051 221.631L191.167 220.857L189.166 220.13L187.062 219.442L184.87 218.792L182.601 218.175L180.271 217.579L177.891 217.002L175.477 216.435L173.039 215.876L170.59 215.315L168.146 214.745L165.716 214.158L163.314 213.544L160.947 212.9L158.626 212.21L156.369 211.474L154.183 210.676L152.079 209.812L150.063 208.867L148.15 207.828L146.349 206.681L144.677 205.409L143.155 203.997L141.798 202.43L140.643 200.703L145.149 198.101L145.895 199.217L146.815 200.278L147.913 201.289L149.185 202.26L150.629 203.18L152.234 204.052L153.98 204.871L155.865 205.646L157.866 206.372L159.969 207.06L162.162 207.71L164.431 208.327L166.761 208.923L169.141 209.5L171.555 210.067L173.989 210.628L176.438 211.189L178.882 211.759L181.312 212.347L183.714 212.96L186.081 213.604L188.402 214.294L190.659 215.031L192.845 215.828L194.949 216.692L196.966 217.637L198.878 218.676L200.68 219.823L202.351 221.095L203.873 222.507L205.23 224.074L206.386 225.802L206.389 225.8ZM319.455 432.043L201.883 228.401L206.389 225.8L323.962 429.441L323.072 433.103L319.455 432.043ZM323.962 429.441L325.325 431.802L323.072 433.103L323.962 429.441ZM77.4956 150.509L115.128 215.69L110.621 218.292L72.989 153.111L73.879 149.449L77.4956 150.509ZM72.989 153.111L71.6258 150.75L73.879 149.449L72.989 153.111ZM106.738 136.774L76.602 154.174L73.8733 149.447L104.009 132.048L107.626 133.109L106.736 136.771L106.738 136.774ZM104.009 132.048L106.263 130.747L107.626 133.109L104.009 132.048ZM140.634 200.688L103.119 135.71L107.626 133.109L145.141 198.086L140.634 200.688ZM69.1623 148.048L75.5701 149.148L74.9123 154.469L68.5045 153.37L66.5833 152.016L69.1623 148.048ZM68.5045 153.37L67.2462 153.155L66.5833 152.016L68.5045 153.37ZM66.583 141.649L71.0834 149.403L66.5833 152.016L62.0829 144.262L61.9349 141.741L66.583 141.649ZM62.0829 144.262L61.3582 143.015L61.9313 141.743L62.0793 144.264L62.0829 144.262ZM69.2719 138.53L66.731 144.17L61.9349 141.741L64.4758 136.101L65.5095 134.952L69.2719 138.53V138.53ZM64.4758 136.101L64.8101 135.356L65.5095 134.952L64.4758 136.101ZM98.3743 122.28L68.2382 139.679L65.5095 134.952L95.6456 117.553L97.1572 117.232L98.3743 122.28V122.28ZM95.6456 117.553L96.345 117.15L97.1572 117.232L95.6456 117.553ZM102.982 123.216L96.8591 122.603L97.1536 117.235L103.276 117.848L105.381 119.229L102.98 123.213L102.982 123.216ZM103.276 117.848L104.664 117.988L105.383 119.233L103.278 117.852L103.276 117.848ZM105.368 129.613L100.875 121.831L105.381 119.229L109.874 127.012L110.089 129.356L105.368 129.613ZM109.874 127.012L110.533 128.153L110.089 129.356L109.874 127.012ZM102.909 133.364L105.157 127.267L110.092 129.354L107.844 135.451L102.909 133.364ZM60.9265 111.87L73.4285 133.524L68.922 136.126L56.42 114.472L57.31 110.809L60.9265 111.87V111.87ZM56.42 114.472L55.0567 112.11L57.31 110.809L56.42 114.472ZM81.5597 103.105L60.0365 115.532L57.3078 110.806L78.831 98.3792L82.4476 99.4395L81.5576 103.102L81.5597 103.105ZM78.831 98.3792L81.0843 97.0783L82.4476 99.4395L78.831 98.3792ZM90.4452 123.699L77.9432 102.045L82.4497 99.4432L94.9518 121.097L90.4452 123.699Z" fill="white" stroke="white" stroke-width="10"/>
<path d="M429.661 378H436.558L436.197 376.897C438.809 376.056 441.373 374.745 443.868 373.064C448.461 369.987 451.977 366.204 453.993 361.635L455.491 358.24L452.676 355.823C435.272 340.878 420.406 326.038 408.086 311.333L408.084 311.331C395.666 296.523 385.345 282.494 377.105 269.255L377.101 269.248C368.77 255.91 359.076 238.901 347.989 218.202L347.97 218.166L347.95 218.13C346.155 214.907 344.166 211.298 341.98 207.268L341.976 207.26L341.972 207.253C340.912 205.312 339.81 203.275 338.662 201.139C352.988 200.549 369.36 198.473 387.755 194.963L387.758 194.962C410.298 190.647 431.122 181.731 450.168 168.261L450.17 168.259C470.059 154.181 480 134.083 480 108.595C480 90.5921 474.828 75.2393 464.263 62.8963L464.261 62.8941C453.965 50.8795 440.881 42.046 425.137 36.382C409.605 30.7942 393.526 28 376.927 28C350.919 28 321.129 35.6837 287.671 50.6729L284.715 51.997V55.2359C284.715 57.5404 285.648 59.5604 286.733 61.1669C287.837 62.8011 289.342 64.371 291.077 65.8815L291.084 65.8875C292.791 67.3675 294.476 68.6211 296.121 69.5265C297.717 70.4043 299.642 71.1594 301.732 71.1594C302.869 71.1594 303.916 70.8632 304.64 70.6186C305.447 70.3462 306.306 69.9778 307.185 69.5573C308.926 68.7242 311.056 67.5352 313.536 66.0393C321.669 61.5404 329.183 57.7921 336.092 54.7816C340.51 52.8571 345.552 51.2087 351.236 49.8607C333.586 92.0336 317.968 132.146 304.394 170.196C289.891 210.834 273.986 259.196 256.671 315.272C253.101 325.922 251 334.071 251 339.04C251 346.513 254.531 352.682 260.736 357.376C266.803 361.967 273.811 364.251 281.581 364.251H285.377L286.397 360.595C294.671 330.94 301.013 307.456 305.417 290.159C311.743 266.134 317.419 245.143 322.444 227.18C330.119 244.755 339.392 263.629 350.26 283.803C363.918 309.178 377.691 330.977 391.579 349.149C398.555 358.283 405.111 365.365 411.254 370.207C417.328 374.994 423.517 378 429.661 378ZM384.125 173.045L384.124 173.045C368.398 178.82 351.86 182.576 334.512 184.296C352.263 123.251 368.354 77.3925 382.787 46.5527C400.203 47.0239 414.591 51.4429 426.195 59.5571L426.201 59.5611C437.831 67.6688 444.038 80.792 444.038 100.12C444.038 118.128 438.491 132.906 427.526 144.847C416.221 157.134 401.807 166.556 384.125 173.045Z" fill="white" stroke="white" stroke-width="10"/>
</svg>
